<svg width="480" height="480" viewBox="0 0 480 480" fill="none" xmlns="http://www.w3.org/2000/svg">
<g clip-path="url(#clip0)">
<path d="M136 272H152V288H136V272Z" fill="#2DC1BD"/>
<path d="M167.999 272H183.999V288H167.999V272Z" fill="#2DC1BD"/>
<path d="M199.999 272H215.999V288H199.999V272Z" fill="#2DC1BD"/>
<path d="M136 304H152V320H136V304Z" fill="#2DC1BD"/>
<path d="M167.999 304H183.999V320H167.999V304Z" fill="#2DC1BD"/>
<path d="M199.999 304H215.999V320H199.999V304Z" fill="#2DC1BD"/>
<path d="M231.999 304H247.999V320H231.999V304Z" fill="#2DC1BD"/>
<path d="M263.998 304H279.998V320H263.998V304Z" fill="#2DC1BD"/>
<path d="M136 336H152V352H136V336Z" fill="#2DC1BD"/>
<path d="M167.999 335.999H183.999V351.999H167.999V335.999Z" fill="#2DC1BD"/>
<path d="M199.999 335.999H215.999V351.999H199.999V335.999Z" fill="#2DC1BD"/>
<path d="M231.999 335.999H247.999V351.999H231.999V335.999Z" fill="#2DC1BD"/>
<path d="M263.998 335.999H279.998V351.999H263.998V335.999Z" fill="#2DC1BD"/>
<path d="M136 368H152V384H136V368Z" fill="#2DC1BD"/>
<path d="M167.999 367.999H183.999V383.999H167.999V367.999Z" fill="#2DC1BD"/>
<path d="M199.999 367.999H215.999V383.999H199.999V367.999Z" fill="#2DC1BD"/>
<path d="M231.999 367.999H247.999V383.999H231.999V367.999Z" fill="#2DC1BD"/>
<path d="M263.998 367.999H279.998V383.999H263.998V367.999Z" fill="#2DC1BD"/>
<path d="M135.999 399.999H151.999V415.999H135.999V399.999Z" fill="#2DC1BD"/>
<path d="M167.999 399.999H183.999V415.999H167.999V399.999Z" fill="#2DC1BD"/>
<path d="M199.999 399.999H215.999V415.999H199.999V399.999Z" fill="#2DC1BD"/>
<path d="M231.999 399.999H247.999V415.999H231.999V399.999Z" fill="#2DC1BD"/>
<path d="M263.998 399.999H279.998V415.999H263.998V399.999Z" fill="#2DC1BD"/>
<path d="M135.999 431.999H151.999V447.999H135.999V431.999Z" fill="#2DC1BD"/>
<path d="M167.999 431.999H183.999V447.999H167.999V431.999Z" fill="#2DC1BD"/>
<path d="M199.999 431.999H215.999V447.999H199.999V431.999Z" fill="#2DC1BD"/>
<path d="M231.999 431.999H247.999V447.999H231.999V431.999Z" fill="#2DC1BD"/>
<path d="M263.998 431.999H279.998V447.999H263.998V431.999Z" fill="#2DC1BD"/>
<path d="M471.997 24.0018H415.997V8.0019C415.997 3.58396 412.415 0.00195312 407.997 0.00195312H327.998C323.58 0.00195312 319.998 3.58396 319.998 8.0019V24.0018H7.99994C3.582 24.0018 0 27.5838 0 32.0017V64.0015C0 68.4233 3.582 72.0014 7.99994 72.0014H31.9998V224C31.9998 228.422 35.5818 232 39.9997 232C44.4176 232 47.9997 235.582 47.9997 240C47.9997 244.422 44.4176 248 39.9997 248C35.5818 248 31.9998 244.422 31.9998 240H15.9999C16.0233 245.856 18.1991 251.5 22.1209 255.852L1.60155 283.203L1.70311 283.281C0.632807 284.625 0.0351559 286.285 0 288V320C0 322.125 0.843744 324.156 2.34373 325.656L18.3436 341.656C19.8436 343.156 21.8787 343.999 23.9998 343.999H55.9996C58.1207 343.999 60.1558 343.156 61.6558 341.656L77.6557 325.656C79.1557 324.156 79.9994 322.125 79.9994 320V288C79.9643 286.285 79.3666 284.625 78.2963 283.281L78.3979 283.203L57.8785 255.852C63.2222 249.914 65.2378 241.696 63.2495 233.961C61.2652 226.227 55.5387 220 47.9997 217.371V72.0014H319.998V80.0014C319.998 84.4232 323.58 88.0013 327.998 88.0013H343.998V463.999H311.998V144.001H295.998V176.001H247.998V160.001H231.998V176.001H183.999V168.001H167.999V176.001H119.999V152.001H223.998V136.001H119.999V104.001H103.999V463.999H91.3118L53.6559 426.347C50.5309 423.222 45.4684 423.222 42.3434 426.347L4.68747 463.999H0V479.998H479.997V463.999H473.758C479.387 457.854 481.387 449.206 479.028 441.21C476.672 433.218 470.301 427.038 462.235 424.929C466.301 414.901 463.161 403.397 454.559 396.831C445.962 390.265 434.032 390.265 425.434 396.831C416.833 403.397 413.692 414.901 417.759 424.929C409.692 427.038 403.321 433.218 400.966 441.21C398.607 449.206 400.606 457.854 406.235 463.999H391.997V88.0013H407.997C412.415 88.0013 415.997 84.4232 415.997 80.0014V72.0014H471.997C476.415 72.0014 479.997 68.4233 479.997 64.0015V32.0017C479.997 27.5838 476.415 24.0018 471.997 24.0018V24.0018ZM43.9997 264L55.9996 280H23.9998L35.9997 264H43.9997ZM63.9995 316.691L52.6871 328H27.3123L15.9999 316.691V296H63.9995V316.691ZM437.598 40.0017L415.997 54.4039V40.0017H437.598ZM335.998 16.0018H367.997V48.0016H335.998V16.0018ZM119.999 41.6032L141.601 56.0015H98.3977L119.999 41.6032ZM71.9995 54.4039L50.3981 40.0017H93.6009L71.9995 54.4039ZM146.397 40.0017H189.6L167.999 54.4039L146.397 40.0017ZM215.998 41.6032L237.6 56.0015H194.397L215.998 41.6032ZM242.397 40.0017H285.6L263.998 54.4039L242.397 40.0017ZM15.9999 40.0017H21.6014L45.6012 56.0015H15.9999V40.0017ZM290.396 56.0015L314.396 40.0017H319.998V56.0015H290.396ZM375.997 437.6L361.599 415.999L375.997 394.401V437.6ZM375.997 245.602L361.599 224L375.997 202.403V245.602ZM359.997 250.402L374.396 272L359.997 293.601V250.402ZM359.997 197.602V154.403L374.396 176.001L359.997 197.602ZM359.997 346.402L374.396 367.999L359.997 389.601V346.402ZM375.997 341.554L361.599 320L375.997 298.402V341.554ZM361.599 128.001L375.997 106.404V149.602L361.599 128.001ZM359.997 101.603V88.0013H369.052L359.997 101.603ZM295.998 192.001V272H247.998V192.001H295.998ZM231.998 192.001V260.801L213.6 242.617C212.108 241.145 210.096 240.313 207.998 240.305H183.999V192.001H231.998ZM167.999 192.001V205.336H119.999V192.001H167.999ZM47.9997 443.311L68.687 463.999H27.3123L47.9997 443.311ZM119.999 463.999V221.336H167.999V248.336C167.999 252.758 171.581 256.336 175.999 256.336H204.709L234.397 285.691C235.889 287.164 237.901 287.996 239.998 288H295.998V463.999H119.999ZM359.997 442.401L374.396 463.999H359.997V442.401ZM455.997 455.999C451.579 455.999 447.997 452.421 447.997 447.999C447.997 443.581 451.579 439.999 455.997 439.999C460.415 439.999 463.997 443.581 463.997 447.999C463.997 452.421 460.415 455.999 455.997 455.999ZM439.997 407.999C444.415 407.999 447.997 411.581 447.997 415.999C447.997 420.421 444.415 423.999 439.997 423.999C435.579 423.999 431.997 420.421 431.997 415.999C431.997 411.581 435.579 407.999 439.997 407.999ZM423.997 439.999C428.415 439.999 431.997 443.581 431.997 447.999C431.997 452.421 428.415 455.999 423.997 455.999C419.579 455.999 415.997 452.421 415.997 447.999C415.997 443.581 419.579 439.999 423.997 439.999ZM399.997 72.0014H335.998V64.0015H375.997C380.415 64.0015 383.997 60.4234 383.997 56.0015V16.0018H399.997V72.0014ZM442.395 56.0015L463.997 41.6032V56.0015H442.395Z" fill="#2DC1BD"/>
</g>
<defs>
<clipPath id="clip0">
<rect width="480" height="480" fill="white"/>
</clipPath>
</defs>
</svg>
