<svg width="512" height="512" viewBox="0 0 512 512" fill="none" xmlns="http://www.w3.org/2000/svg">
<g clip-path="url(#clip0)">
<path d="M511.964 444.408L511.62 436.539C511.444 432.518 508.019 429.407 504.022 429.579C500.002 429.755 496.886 433.156 497.062 437.177L497.409 445.109C497.412 445.157 497.414 445.205 497.417 445.253C497.511 446.719 497.009 448.116 496.005 449.186C495.007 450.25 493.655 450.836 492.199 450.836H449.571V316.337L460.561 320.221C479.5 326.914 492.569 344.199 493.874 364.272L495.082 391.907C495.258 395.927 498.654 399.051 502.679 398.867C506.7 398.691 509.816 395.29 509.64 391.27L508.429 363.562C508.426 363.514 508.424 363.466 508.421 363.418C506.77 337.48 489.89 315.131 465.416 306.483L445.066 299.291C444.946 299.241 444.835 299.177 444.712 299.134L383.936 277.654C383.926 277.65 383.915 277.646 383.905 277.643C383.679 277.565 383.455 277.499 383.227 277.44C383.112 277.409 382.996 277.389 382.881 277.364C378.859 276.323 374.501 277.48 371.537 280.449L369.658 282.331L353.621 274.281L353.619 260.223C358.465 256.887 363.029 252.908 367.173 248.468C367.222 248.415 367.271 248.363 367.32 248.31C377.785 237.04 385.509 222.852 388.137 208.756C388.207 208.384 388.276 208.011 388.339 207.639C388.404 207.253 388.465 206.868 388.522 206.483C388.618 205.839 388.702 205.196 388.776 204.554C388.794 204.4 388.817 204.245 388.833 204.091C388.907 203.393 388.97 202.696 389.017 202.002H392.041C401.433 202.002 409.074 194.361 409.074 184.969V165.878C409.074 164.975 408.995 164.08 408.854 163.196C409.928 161.245 410.546 159.003 410.546 156.614V148.474C410.546 142.285 406.433 137.052 400.831 135.434V134.285C400.831 133.59 400.822 132.896 400.805 132.206C400.312 112.777 392.683 94.3718 379.326 80.3828C367.141 67.6218 351.202 59.5438 334.036 57.3388C333.774 56.8688 333.49 56.4148 333.195 55.9688C333.119 55.8548 333.039 55.7448 332.961 55.6318C332.663 55.1998 332.349 54.7808 332.021 54.3748C331.963 54.3038 331.908 54.2308 331.85 54.1608C331.444 53.6718 331.018 53.2018 330.57 52.7528C330.555 52.7378 330.539 52.7238 330.523 52.7078C330.087 52.2738 329.631 51.8618 329.159 51.4678C329.106 51.4238 329.054 51.3788 329.001 51.3348C328.029 50.5388 326.986 49.8338 325.885 49.2228C325.786 49.1678 325.688 49.1128 325.588 49.0588C325.041 48.7668 324.484 48.4928 323.911 48.2498C323.882 48.2378 323.851 48.2278 323.821 48.2148C323.292 47.9928 322.75 47.7988 322.201 47.6208C322.052 47.5718 321.902 47.5248 321.752 47.4798C321.169 47.3058 320.581 47.1468 319.98 47.0228C319.946 47.0158 319.912 47.0118 319.878 47.0058C319.303 46.8898 318.719 46.8058 318.129 46.7378C317.967 46.7188 317.805 46.7028 317.642 46.6878C317.014 46.6308 316.382 46.5918 315.742 46.5918H308.865C308.225 46.5918 307.593 46.6308 306.965 46.6878C306.801 46.7028 306.639 46.7198 306.477 46.7378C305.889 46.8048 305.306 46.8898 304.732 47.0048C304.697 47.0118 304.662 47.0158 304.627 47.0228C304.027 47.1468 303.438 47.3048 302.856 47.4788C302.705 47.5238 302.555 47.5718 302.405 47.6208C301.857 47.7988 301.316 47.9928 300.787 48.2138C300.757 48.2268 300.725 48.2368 300.695 48.2498C300.122 48.4928 299.566 48.7668 299.019 49.0578C298.918 49.1118 298.818 49.1678 298.718 49.2228C298.184 49.5188 297.66 49.8328 297.154 50.1738C297.153 50.1748 297.151 50.1758 297.15 50.1768C296.616 50.5368 296.103 50.9258 295.604 51.3338C295.55 51.3778 295.497 51.4238 295.444 51.4688C294.973 51.8618 294.518 52.2728 294.083 52.7058C294.067 52.7218 294.05 52.7368 294.034 52.7528C293.587 53.2008 293.161 53.6708 292.756 54.1588C292.697 54.2298 292.641 54.3028 292.583 54.3748C292.255 54.7798 291.942 55.1988 291.644 55.6298C291.566 55.7428 291.485 55.8528 291.409 55.9678C291.114 56.4128 290.83 56.8678 290.568 57.3378C273.403 59.5428 257.463 67.6218 245.279 80.3808C238.77 87.1978 233.634 95.0678 230.008 103.589L187.805 64.0538C179.143 55.9398 165.59 55.9578 156.952 64.0968L111.172 107.223L111.164 102.181C111.16 99.2908 110.031 96.5758 107.984 94.5358C105.941 92.4988 103.23 91.3778 100.346 91.3778C100.341 91.3778 100.335 91.3778 100.33 91.3778L66.0102 91.4258C60.0462 91.4348 55.1992 96.2938 55.2062 102.261L55.3002 159.856L7.08123 205.28C2.70023 209.407 0.189235 214.992 0.010235 221.008C-0.168765 227.024 2.00524 232.749 6.13124 237.128C10.2572 241.509 15.8422 244.02 21.8582 244.2C22.0892 244.207 22.3182 244.21 22.5472 244.21C28.3102 244.21 33.7672 242.047 37.9792 238.078L54.3082 222.695L54.3792 273.776C54.3852 277.796 57.6452 281.051 61.6652 281.051C61.6682 281.051 61.6722 281.051 61.6752 281.051C65.6992 281.045 68.9572 277.779 68.9512 273.755L68.8602 208.987L172.442 111.408L214.056 150.392V156.613C214.056 157.035 214.081 157.453 214.119 157.868C214.126 157.945 214.132 158.022 214.141 158.099C214.335 159.92 214.879 161.656 215.744 163.22C215.606 164.095 215.529 164.982 215.529 165.877V184.968C215.529 194.36 223.17 202.001 232.563 202.001H235.577C235.624 202.721 235.688 203.443 235.764 204.168C235.785 204.372 235.814 204.577 235.838 204.781C235.908 205.382 235.986 205.984 236.075 206.588C236.128 206.95 236.184 207.313 236.244 207.675C236.316 208.106 236.397 208.539 236.478 208.971C236.646 209.866 236.835 210.762 237.044 211.657C237.082 211.821 237.117 211.985 237.157 212.149C237.302 212.75 237.459 213.35 237.622 213.95C237.655 214.07 237.688 214.191 237.722 214.311C239.019 218.991 240.845 223.638 243.117 228.145C243.141 228.193 243.165 228.241 243.19 228.289C244.098 230.083 245.076 231.852 246.12 233.593C246.258 233.823 246.394 234.053 246.534 234.282C246.816 234.743 247.102 235.202 247.393 235.658C247.613 236.003 247.837 236.346 248.062 236.688C248.315 237.073 248.565 237.46 248.824 237.842C249.286 238.523 249.76 239.197 250.242 239.867C250.448 240.153 250.659 240.434 250.868 240.718C251.227 241.205 251.591 241.689 251.961 242.169C252.163 242.431 252.364 242.693 252.568 242.952C253.071 243.591 253.583 244.225 254.104 244.851C254.179 244.941 254.251 245.032 254.326 245.121C254.899 245.804 255.485 246.475 256.079 247.141C256.288 247.376 256.5 247.607 256.711 247.839C257.129 248.298 257.552 248.753 257.98 249.203C258.217 249.452 258.452 249.702 258.691 249.948C259.205 250.476 259.726 250.997 260.252 251.512C260.631 251.883 261.016 252.246 261.402 252.609C261.725 252.913 262.048 253.218 262.376 253.517C262.773 253.88 263.174 254.236 263.577 254.59C263.791 254.778 264.007 254.964 264.223 255.149C266.402 257.026 268.659 258.773 270.982 260.373L270.98 274.278L254.948 282.33L253.066 280.445C251.264 278.64 248.947 277.504 246.504 277.123C246.233 277.081 245.96 277.048 245.686 277.024C245.412 277.001 245.137 276.986 244.861 276.982C244.586 276.978 244.309 276.983 244.034 276.998C243.278 277.039 242.523 277.158 241.778 277.347C241.636 277.377 241.493 277.405 241.351 277.443C241.129 277.501 240.863 277.58 240.667 277.65L213.31 287.319L213.238 235.495C213.229 228.813 207.79 223.385 201.111 223.385C201.105 223.385 201.1 223.385 201.094 223.385L144.104 223.465C140.865 223.47 137.821 224.735 135.534 227.029C133.247 229.322 131.989 232.37 131.994 235.609L132.119 324.79C132.109 324.802 132.099 324.814 132.088 324.826C131.891 325.05 131.704 325.282 131.51 325.509C131.2 325.872 130.888 326.233 130.586 326.604C130.396 326.837 130.215 327.077 130.029 327.313C129.734 327.685 129.437 328.055 129.151 328.434C128.968 328.676 128.794 328.925 128.614 329.17C128.335 329.55 128.052 329.928 127.781 330.315C127.606 330.564 127.441 330.82 127.27 331.071C127.005 331.46 126.737 331.848 126.48 332.243C126.313 332.5 126.155 332.764 125.992 333.024C125.742 333.421 125.489 333.817 125.248 334.22C125.091 334.482 124.944 334.75 124.79 335.014C124.554 335.422 124.314 335.828 124.086 336.241C123.936 336.514 123.795 336.792 123.649 337.068C123.431 337.479 123.209 337.887 122.999 338.303C122.852 338.594 122.716 338.89 122.573 339.183C122.375 339.59 122.174 339.995 121.984 340.407C121.845 340.708 121.717 341.014 121.583 341.318C121.402 341.729 121.217 342.137 121.044 342.552C120.914 342.864 120.794 343.182 120.669 343.497C120.505 343.908 120.337 344.317 120.182 344.732C120.06 345.058 119.949 345.388 119.832 345.716C119.686 346.127 119.535 346.536 119.396 346.95C119.284 347.285 119.183 347.625 119.077 347.962C118.947 348.374 118.812 348.784 118.69 349.2C118.589 349.545 118.499 349.894 118.403 350.241C118.289 350.655 118.17 351.067 118.064 351.484C117.975 351.834 117.897 352.189 117.814 352.542C117.715 352.96 117.611 353.377 117.52 353.798C117.442 354.16 117.376 354.526 117.304 354.89C117.222 355.306 117.135 355.72 117.06 356.138C116.993 356.516 116.938 356.897 116.878 357.276C116.813 357.685 116.742 358.093 116.685 358.504C116.63 358.894 116.588 359.287 116.541 359.678C116.492 360.084 116.437 360.488 116.395 360.896C116.354 361.293 116.326 361.693 116.293 362.092C116.262 362.464 116.223 362.835 116.198 363.208L69.3742 363.273C69.2102 363.273 69.0772 363.14 69.0772 362.976L69.0162 319.026C69.0102 315.005 65.7502 311.75 61.7302 311.75C61.7272 311.75 61.7232 311.75 61.7202 311.75C57.6962 311.756 54.4382 315.022 54.4442 319.046L54.5052 362.997C54.5172 371.189 61.1852 377.845 69.3742 377.845C69.3812 377.845 69.3882 377.845 69.3942 377.845L115.555 377.781L112.641 444.408C112.318 449.827 114.26 455.199 117.974 459.157C121.701 463.129 126.962 465.407 132.406 465.407H492.199C497.643 465.407 502.903 463.129 506.63 459.157C510.345 455.199 512.287 449.827 511.964 444.408ZM394.502 184.968C394.502 186.325 393.398 187.429 392.041 187.429H389.131V170.169H394.502V184.968V184.968ZM302.659 66.0458C302.666 66.0198 302.678 65.9958 302.685 65.9698C302.953 64.9238 303.472 63.9958 304.164 63.2398C304.181 63.2208 304.198 63.2018 304.215 63.1838C304.434 62.9498 304.671 62.7338 304.922 62.5358C304.951 62.5128 304.982 62.4908 305.012 62.4688C305.52 62.0828 306.085 61.7748 306.691 61.5538C306.737 61.5368 306.782 61.5188 306.828 61.5038C307.119 61.4058 307.419 61.3288 307.726 61.2728C307.781 61.2628 307.837 61.2558 307.892 61.2478C308.211 61.1988 308.534 61.1658 308.864 61.1658H315.741C316.071 61.1658 316.395 61.1988 316.713 61.2478C316.768 61.2558 316.824 61.2628 316.879 61.2728C317.185 61.3288 317.485 61.4048 317.776 61.5038C317.823 61.5198 317.869 61.5378 317.916 61.5548C318.52 61.7748 319.084 62.0828 319.591 62.4678C319.622 62.4908 319.654 62.5138 319.684 62.5368C319.934 62.7338 320.169 62.9488 320.388 63.1818C320.407 63.2018 320.424 63.2218 320.442 63.2418C321.133 63.9978 321.651 64.9238 321.919 65.9688C321.926 65.9948 321.938 66.0178 321.945 66.0438C322.064 66.5298 322.134 67.0358 322.134 67.5578V92.1428C322.134 95.6678 319.266 98.5358 315.742 98.5358H308.865C305.34 98.5358 302.472 95.6678 302.472 92.1428V67.5578H302.471C302.471 67.0358 302.541 66.5318 302.659 66.0458ZM96.5982 105.954L96.6222 120.928L69.8492 146.15L69.7842 105.992L96.5982 105.954ZM225.119 119.819C224.98 120.567 224.844 121.315 224.726 122.069C224.66 122.491 224.606 122.913 224.547 123.336C224.451 124.023 224.353 124.709 224.275 125.4C224.209 125.979 224.163 126.559 224.11 127.139C224.061 127.684 224.002 128.226 223.964 128.773C223.884 129.917 223.827 131.061 223.798 132.206C223.78 132.897 223.771 133.591 223.771 134.286V135.434C223.756 135.438 223.743 135.445 223.728 135.449C223.285 135.579 222.855 135.738 222.432 135.911C222.295 135.967 222.16 136.025 222.025 136.085C221.652 136.253 221.286 136.434 220.932 136.635C220.88 136.665 220.823 136.686 220.771 136.716L177.409 96.0948C174.601 93.4658 170.232 93.4698 167.432 96.1088L27.9872 227.473C26.4402 228.931 24.4292 229.707 22.2922 229.636C20.1672 229.572 18.1952 228.685 16.7372 227.138C15.2792 225.591 14.5112 223.569 14.5742 221.444C14.6382 219.319 15.5252 217.346 17.0722 215.889L166.943 74.7028C168.472 73.2628 170.436 72.5418 172.4 72.5418C174.357 72.5418 176.315 73.2568 177.842 74.6878L225.246 119.094C225.198 119.336 225.164 119.578 225.119 119.819ZM232.563 187.43C231.205 187.43 230.101 186.326 230.101 184.969V170.17H235.471V187.43H232.563V187.43ZM228.629 153.331V149.489H231.058C235.082 149.489 238.344 146.227 238.344 142.203V134.284C238.344 133.713 238.351 133.144 238.366 132.575C238.394 131.465 238.458 130.354 238.545 129.244C238.567 128.961 238.599 128.68 238.625 128.397C238.703 127.542 238.794 126.688 238.907 125.835C238.944 125.557 238.984 125.28 239.025 125.002C239.157 124.1 239.306 123.201 239.476 122.305C239.514 122.104 239.55 121.903 239.589 121.702C239.808 120.604 240.051 119.51 240.327 118.423C240.328 118.417 240.329 118.411 240.33 118.405C242.994 107.966 248.28 98.3358 255.816 90.4428C264.599 81.2448 275.774 75.0578 287.898 72.5518V92.1388C287.898 103.699 297.303 113.103 308.863 113.103H315.74C327.3 113.103 336.704 103.698 336.704 92.1388V72.5538C348.827 75.0598 360.004 81.2468 368.787 90.4448C379.639 101.81 385.837 116.772 386.238 132.576C386.252 133.144 386.259 133.713 386.259 134.284V142.203C386.259 146.227 389.521 149.489 393.545 149.489H395.975V153.331H228.629V153.331ZM250.319 203.206C250.306 203.094 250.294 202.982 250.281 202.869C250.215 202.258 250.163 201.65 250.124 201.044C250.118 200.947 250.11 200.85 250.104 200.753C250.065 200.054 250.043 199.358 250.043 198.667V170.17H374.559V198.515C374.559 199.213 374.537 199.917 374.497 200.623C374.492 200.704 374.485 200.785 374.48 200.866C374.441 201.486 374.388 202.109 374.32 202.734C374.308 202.844 374.296 202.954 374.283 203.064C374.203 203.749 374.109 204.436 373.995 205.126C373.994 205.13 373.994 205.133 373.993 205.137C371.41 220.722 360.258 237.358 346.59 247.329C346.492 247.4 346.394 247.473 346.296 247.543C345.863 247.855 345.425 248.154 344.987 248.452C344.746 248.615 344.508 248.784 344.266 248.943C344.138 249.027 344.009 249.105 343.88 249.188C343.436 249.475 342.991 249.761 342.541 250.035C342.518 250.049 342.498 250.067 342.475 250.081C338.413 252.551 334.192 254.406 329.956 255.46L329.194 255.65C313.652 259.515 310.084 259.506 294.485 255.573C290.289 254.515 286.108 252.668 282.083 250.214C282.074 250.208 282.066 250.201 282.057 250.196C281.896 250.098 281.739 249.993 281.578 249.893C281.102 249.596 280.627 249.297 280.156 248.984C280.039 248.907 279.924 248.825 279.808 248.747C264.721 238.545 252.286 220.032 250.319 203.206ZM278.132 286.995C282.6 285.299 285.553 281.061 285.553 276.226L285.554 268.039C287.33 268.691 289.122 269.248 290.924 269.703C299.874 271.959 305.904 273.085 311.943 273.085C317.913 273.085 323.893 271.985 332.713 269.792L333.475 269.602C335.346 269.137 337.205 268.558 339.049 267.881L339.05 276.226C339.05 281.062 342.002 285.301 346.471 286.996L358.146 292.857C358.006 292.964 357.869 293.077 357.729 293.183C357.408 293.424 357.082 293.657 356.757 293.893C356.144 294.338 355.527 294.775 354.902 295.2C354.553 295.438 354.203 295.672 353.85 295.904C353.213 296.322 352.569 296.728 351.92 297.126C351.589 297.329 351.26 297.536 350.927 297.734C350.134 298.204 349.33 298.656 348.521 299.096C348.33 299.2 348.143 299.311 347.951 299.413C346.948 299.947 345.932 300.456 344.905 300.944C344.63 301.075 344.35 301.194 344.073 301.322C343.315 301.671 342.552 302.012 341.783 302.335C341.413 302.491 341.039 302.638 340.666 302.788C339.969 303.067 339.269 303.337 338.564 303.596C338.175 303.739 337.785 303.88 337.393 304.016C336.661 304.27 335.924 304.51 335.184 304.742C334.83 304.853 334.477 304.969 334.121 305.075C333.146 305.365 332.164 305.635 331.176 305.885C331.057 305.915 330.94 305.951 330.821 305.98C329.709 306.256 328.588 306.503 327.461 306.729C327.138 306.794 326.812 306.847 326.487 306.908C325.678 307.059 324.867 307.202 324.05 307.327C323.647 307.389 323.243 307.444 322.839 307.499C322.08 307.603 321.319 307.696 320.555 307.778C320.144 307.822 319.732 307.865 319.319 307.903C318.51 307.976 317.697 308.033 316.882 308.081C316.528 308.102 316.175 308.129 315.819 308.145C314.65 308.198 313.478 308.23 312.3 308.23C311.122 308.23 309.95 308.197 308.781 308.145C308.426 308.129 308.074 308.102 307.721 308.081C306.905 308.033 306.091 307.976 305.28 307.903C304.868 307.866 304.457 307.822 304.047 307.779C303.282 307.697 302.52 307.604 301.76 307.5C301.357 307.445 300.953 307.39 300.551 307.328C299.734 307.203 298.921 307.06 298.111 306.908C297.787 306.847 297.461 306.794 297.139 306.73C296.011 306.504 294.89 306.257 293.778 305.98C293.662 305.951 293.548 305.916 293.432 305.887C292.441 305.636 291.456 305.365 290.478 305.074C290.124 304.969 289.774 304.853 289.422 304.743C288.679 304.51 287.939 304.269 287.204 304.014C286.816 303.879 286.429 303.739 286.043 303.598C285.334 303.338 284.629 303.066 283.928 302.785C283.559 302.637 283.19 302.491 282.824 302.337C282.045 302.01 281.275 301.666 280.508 301.313C280.24 301.19 279.969 301.074 279.703 300.947C278.673 300.458 277.654 299.947 276.646 299.411C276.466 299.315 276.291 299.211 276.112 299.114C275.29 298.668 274.475 298.209 273.67 297.732C273.343 297.538 273.021 297.336 272.697 297.137C272.04 296.734 271.387 296.323 270.742 295.899C270.397 295.673 270.055 295.443 269.714 295.211C269.08 294.78 268.453 294.336 267.831 293.884C267.514 293.654 267.196 293.427 266.883 293.192C266.74 293.085 266.601 292.969 266.459 292.861L278.132 286.995ZM132.406 450.835C130.95 450.835 129.598 450.249 128.599 449.185C127.595 448.115 127.093 446.718 127.187 445.252C127.19 445.204 127.193 445.156 127.195 445.108L130.73 364.274C131.51 352.273 136.499 341.269 144.43 332.928C144.506 332.856 144.586 332.789 144.659 332.713C149.324 327.865 154.984 323.978 161.164 321.347C161.293 321.292 161.423 321.238 161.553 321.185C162.375 320.843 163.204 320.518 164.042 320.221L175.033 316.337V450.835H132.406V450.835ZM179.539 299.29L159.188 306.483C158.424 306.753 157.668 307.036 156.92 307.332C156.682 307.426 156.45 307.53 156.214 307.626C156.029 307.702 155.845 307.779 155.661 307.857C155.34 307.992 155.015 308.12 154.697 308.26C154.346 308.414 154.003 308.581 153.655 308.741C153.277 308.915 152.895 309.083 152.522 309.264C152.17 309.435 151.825 309.617 151.477 309.793C151.116 309.976 150.75 310.153 150.393 310.343C150.065 310.517 149.744 310.703 149.419 310.882C149.051 311.086 148.679 311.284 148.315 311.494C147.995 311.679 147.683 311.876 147.366 312.066C147.135 312.205 146.903 312.342 146.674 312.483L146.57 238.036L198.671 237.963L198.747 292.47L179.892 299.133C179.769 299.176 179.658 299.24 179.539 299.29ZM189.605 450.835V311.187L237.805 294.152L243.382 321.524C245.468 331.762 251.737 340.825 260.58 346.389L305.015 374.349V450.835H189.605ZM268.341 334.056C262.849 330.601 258.957 324.972 257.661 318.615L254.218 301.714C254.49 301.943 254.752 302.187 255.026 302.412C271.094 315.618 291.12 322.8 312.303 322.8C318.172 322.8 323.949 322.237 329.581 321.159C344.623 318.28 358.598 311.638 370.387 301.714L366.943 318.615C365.649 324.972 361.757 330.6 356.265 334.055L312.303 361.717L268.341 334.056ZM434.999 450.835H319.588V374.35L364.024 346.39C372.869 340.825 379.137 331.762 381.221 321.525L386.799 294.152L434.999 311.187V450.835V450.835Z" fill="#2DC1BD"/>
</g>
<defs>
<clipPath id="clip0">
<rect width="511.999" height="511.999" fill="white"/>
</clipPath>
</defs>
</svg>
