<svg width="512" height="512" viewBox="0 0 512 512" fill="none" xmlns="http://www.w3.org/2000/svg">
<path d="M480 6H32C25.1068 6.00794 18.4982 8.74977 13.624 13.624C8.74977 18.4982 6.00794 25.1068 6 32V384C6.00794 390.893 8.74977 397.502 13.624 402.376C18.4982 407.25 25.1068 409.992 32 410H208.671L201.865 464.431C185.249 470.402 169.348 478.199 154.453 487.68C152.667 488.871 151.312 490.604 150.588 492.624C149.863 494.644 149.808 496.844 150.43 498.898C151.052 500.952 152.318 502.751 154.041 504.03C155.765 505.309 157.854 506 160 506H352C354.146 506 356.235 505.309 357.959 504.03C359.682 502.751 360.948 500.952 361.57 498.898C362.192 496.844 362.137 494.644 361.412 492.624C360.688 490.604 359.333 488.871 357.547 487.68C342.652 478.199 326.751 470.402 310.135 464.431L303.329 410H480C486.893 409.992 493.502 407.25 498.376 402.376C503.25 397.502 505.992 390.893 506 384V32C505.992 25.1068 503.25 18.4982 498.376 13.624C493.502 8.74977 486.893 6.00794 480 6V6ZM32 26H480C481.591 26.0016 483.116 26.6342 484.241 27.7591C485.366 28.884 485.998 30.4092 486 32V310H26V32C26.0016 30.4092 26.6342 28.884 27.7591 27.7591C28.884 26.6342 30.4092 26.0016 32 26V26ZM208 486H201.474C217.367 479.607 236.783 474 256 474C275.148 474 294.556 479.607 310.459 486H208ZM289.2 458.16C267.418 452.613 244.592 452.613 222.81 458.16L228.827 410H283.173L289.2 458.16ZM486 384C485.998 385.591 485.366 387.116 484.241 388.241C483.116 389.366 481.591 389.998 480 390H32C30.4092 389.998 28.884 389.366 27.7591 388.241C26.6342 387.116 26.0016 385.591 26 384V330H486V384Z" fill="#2DC1BD"/>
<path d="M240 370H272C274.652 370 277.196 368.946 279.071 367.071C280.946 365.196 282 362.652 282 360C282 357.348 280.946 354.804 279.071 352.929C277.196 351.054 274.652 350 272 350H240C237.348 350 234.804 351.054 232.929 352.929C231.054 354.804 230 357.348 230 360C230 362.652 231.054 365.196 232.929 367.071C234.804 368.946 237.348 370 240 370Z" fill="#2DC1BD"/>
<path d="M104 74H128.792L174.513 211.162C174.852 212.182 175.355 213.14 176 214V214C169.725 213.991 163.657 216.25 158.914 220.359C154.172 224.469 151.073 230.153 150.188 236.365C149.303 242.578 150.692 248.901 154.1 254.171C157.507 259.441 162.702 263.304 168.731 265.047C174.759 266.79 181.214 266.298 186.909 263.66C192.603 261.022 197.152 256.416 199.72 250.69C202.288 244.964 202.702 238.504 200.885 232.497C199.068 226.491 195.142 221.342 189.831 218H273.293C273.105 219.976 273 221.976 273 224C273 236.46 276.695 248.641 283.617 259.001C290.54 269.361 300.379 277.436 311.891 282.204C323.403 286.973 336.07 288.22 348.291 285.789C360.511 283.359 371.737 277.358 380.548 268.548C389.358 259.737 395.359 248.511 397.789 236.291C400.22 224.07 398.973 211.403 394.204 199.891C389.436 188.379 381.361 178.54 371.001 171.617C360.641 164.695 348.46 161 336 161C334.013 161 332.051 161.1 330.11 161.284L345.487 115.163C345.988 113.66 346.125 112.059 345.886 110.492C345.647 108.926 345.039 107.439 344.113 106.153C343.186 104.868 341.968 103.821 340.557 103.099C339.147 102.376 337.585 102 336 102H208C205.348 102 202.804 103.054 200.929 104.929C199.054 106.804 198 109.348 198 112C198 114.652 199.054 117.196 200.929 119.071C202.804 120.946 205.348 122 208 122H322.125L312.777 150.039C312.52 150.019 312.262 150 312 150H224C221.348 150 218.804 151.054 216.929 152.929C215.054 154.804 214 157.348 214 160C214 162.652 215.054 165.196 216.929 167.071C218.804 168.946 221.348 170 224 170H303.589C292.639 176.604 283.941 186.364 278.638 198H191.208L145.487 60.838C144.823 58.8468 143.55 57.1149 141.847 55.8876C140.145 54.6604 138.099 54 136 54H104C101.348 54 98.8043 55.0536 96.9289 56.9289C95.0536 58.8043 94 61.3478 94 64C94 66.6522 95.0536 69.1957 96.9289 71.0711C98.8043 72.9464 101.348 74 104 74ZM176 246C174.813 246 173.653 245.648 172.667 244.989C171.68 244.33 170.911 243.392 170.457 242.296C170.003 241.2 169.884 239.993 170.115 238.829C170.347 237.666 170.918 236.596 171.757 235.757C172.596 234.918 173.666 234.347 174.829 234.115C175.993 233.884 177.2 234.003 178.296 234.457C179.392 234.911 180.33 235.68 180.989 236.667C181.648 237.653 182 238.813 182 240C181.998 241.591 181.366 243.116 180.241 244.241C179.116 245.366 177.591 245.998 176 246ZM379 224C379 232.505 376.478 240.818 371.753 247.89C367.028 254.961 360.313 260.472 352.455 263.727C344.598 266.981 335.952 267.833 327.611 266.174C319.27 264.515 311.608 260.419 305.594 254.406C299.581 248.392 295.485 240.73 293.826 232.389C292.167 224.048 293.019 215.402 296.273 207.545C299.528 199.687 305.039 192.972 312.11 188.247C319.182 183.522 327.495 181 336 181C347.4 181.013 358.33 185.547 366.391 193.609C374.453 201.67 378.987 212.6 379 224V224Z" fill="#2DC1BD"/>
<path d="M315.528 232.944L331.528 240.944C333.708 242.034 336.211 242.289 338.567 241.663C340.923 241.037 342.968 239.572 344.32 237.544L360.32 213.544C361.762 211.337 362.275 208.65 361.746 206.067C361.217 203.485 359.69 201.215 357.496 199.753C355.303 198.291 352.621 197.753 350.033 198.259C347.446 198.764 345.162 200.27 343.68 202.45L332.58 219.105L324.48 215.053C322.111 213.891 319.378 213.713 316.878 214.557C314.378 215.402 312.313 217.2 311.133 219.56C309.953 221.92 309.754 224.651 310.579 227.157C311.403 229.664 313.185 231.743 315.536 232.941L315.528 232.944Z" fill="#2DC1BD"/>
</svg>
