<svg width="512" height="512" viewBox="0 0 512 512" fill="none" xmlns="http://www.w3.org/2000/svg">
<path d="M494.47 24.7246H17.53C7.864 24.7246 0 32.5886 0 42.2546V365.933C0 375.599 7.864 383.463 17.53 383.463H116.107L118.13 392.877C120.282 402.898 128.423 410.516 138.27 412.274C134.222 419.536 131.905 427.89 131.905 436.778C131.905 464.622 154.558 487.275 182.402 487.275C210.246 487.275 232.899 464.622 232.899 436.778C232.899 428.049 230.671 419.831 226.756 412.66H268.694C264.779 419.831 262.551 428.049 262.551 436.778C262.551 464.622 285.204 487.275 313.048 487.275C340.892 487.275 363.545 464.622 363.545 436.778C363.545 427.99 361.284 419.722 357.32 412.517C367.969 411.421 376.993 403.506 379.277 392.876L433.841 138.92H496.973V365.933C496.973 367.314 495.85 368.437 494.469 368.437H412.61C408.46 368.437 405.097 371.8 405.097 375.95C405.097 380.1 408.46 383.463 412.61 383.463H494.469C504.135 383.463 511.999 375.599 511.999 365.933V42.2546C512 32.5886 504.136 24.7246 494.47 24.7246V24.7246ZM182.402 472.249C162.843 472.249 146.93 456.336 146.93 436.777C146.93 417.218 162.842 401.305 182.402 401.305C201.962 401.305 217.874 417.218 217.874 436.777C217.874 456.337 201.961 472.249 182.402 472.249ZM313.049 472.249C293.49 472.249 277.577 456.336 277.577 436.777C277.577 417.218 293.49 401.305 313.049 401.305C332.608 401.305 348.521 417.218 348.521 436.777C348.52 456.337 332.607 472.249 313.049 472.249ZM475.608 123.894C480.646 119.31 483.812 112.704 483.812 105.373C483.812 91.5636 472.578 80.3296 458.769 80.3296H435.135C411.997 80.3296 391.675 96.7496 386.813 119.372L385.842 123.893H314.897C310.747 123.893 307.384 127.256 307.384 131.406C307.384 135.556 310.747 138.919 314.897 138.919H382.615L374.99 174.41H102.185C94.583 174.41 87.483 177.802 82.705 183.715C77.928 189.627 76.104 197.281 77.701 204.714L96.225 290.931C97.097 294.989 101.09 297.564 105.148 296.699C109.204 295.827 111.786 291.832 110.915 287.776L92.391 201.559C91.753 198.585 92.482 195.523 94.393 193.158C96.304 190.794 99.144 189.437 102.185 189.437H381.06C384.601 189.437 387.661 186.964 388.406 183.502L401.506 122.529C404.889 106.784 419.033 95.3566 435.137 95.3566H458.771C464.294 95.3566 468.788 99.8506 468.788 105.374C468.788 110.897 464.294 115.391 458.771 115.391H435.137C428.413 115.391 422.506 120.163 421.092 126.739L364.588 389.722C363.603 394.307 359.485 397.635 354.795 397.635H344.908C336.211 390.544 325.12 386.282 313.05 386.282C300.98 386.282 289.889 390.544 281.192 397.635H214.262C205.565 390.544 194.474 386.282 182.404 386.282C170.334 386.282 159.243 390.544 150.546 397.635H142.616C137.926 397.635 133.807 394.307 132.822 389.722L117.403 317.961C116.532 313.903 112.541 311.331 108.48 312.193C104.423 313.065 101.842 317.06 102.713 321.116L112.881 368.438H17.53C16.149 368.438 15.026 367.315 15.026 365.934V138.92H280.147C284.297 138.92 287.66 135.557 287.66 131.407C287.66 127.257 284.297 123.894 280.147 123.894H15.026V42.2536C15.026 40.8726 16.15 39.7496 17.53 39.7496H494.47C495.851 39.7496 496.974 40.8726 496.974 42.2536V123.894H475.608Z" fill="#2DC1BD"/>
<path d="M55.5318 96.1906C63.6228 96.1906 70.1818 89.6316 70.1818 81.5406C70.1818 73.4497 63.6228 66.8906 55.5318 66.8906C47.4409 66.8906 40.8818 73.4497 40.8818 81.5406C40.8818 89.6316 47.4409 96.1906 55.5318 96.1906Z" fill="#2DC1BD"/>
<path d="M100.084 96.1906C108.175 96.1906 114.734 89.6316 114.734 81.5406C114.734 73.4497 108.175 66.8906 100.084 66.8906C91.9931 66.8906 85.4341 73.4497 85.4341 81.5406C85.4341 89.6316 91.9931 96.1906 100.084 96.1906Z" fill="#2DC1BD"/>
<path d="M144.636 96.1906C152.727 96.1906 159.286 89.6316 159.286 81.5406C159.286 73.4497 152.727 66.8906 144.636 66.8906C136.545 66.8906 129.986 73.4497 129.986 81.5406C129.986 89.6316 136.545 96.1906 144.636 96.1906Z" fill="#2DC1BD"/>
<path d="M269.819 334.912H225.633C223.533 334.912 221.529 335.79 220.107 337.335C218.685 338.88 217.973 340.949 218.146 343.041L220.424 370.702C220.745 374.599 224.001 377.599 227.911 377.599H267.542C271.452 377.599 274.709 374.6 275.029 370.702L277.306 343.041C277.478 340.949 276.767 338.88 275.345 337.335C273.922 335.791 271.918 334.912 269.819 334.912V334.912ZM260.621 362.573H234.83L233.79 349.938H261.663L260.621 362.573Z" fill="#2DC1BD"/>
<path d="M122.479 246.223C123.223 249.685 126.283 252.158 129.824 252.158H182.401C186.669 252.251 190.331 248.274 189.888 244.029L187.611 216.368C187.29 212.471 184.034 209.471 180.124 209.471H123.881C119.238 209.355 115.447 214.048 116.536 218.562L122.479 246.223ZM173.205 224.497L174.245 237.132H135.895L133.18 224.497H173.205Z" fill="#2DC1BD"/>
<path d="M150.834 334.912C148.564 334.912 146.416 335.938 144.99 337.703C143.564 339.469 143.012 341.784 143.489 344.003L149.432 371.664C150.176 375.126 153.236 377.599 156.777 377.599H192.731C194.831 377.599 196.835 376.721 198.257 375.176C199.679 373.631 200.391 371.562 200.218 369.47L197.94 341.809C197.619 337.912 194.363 334.912 190.453 334.912H150.834ZM162.847 362.573L160.132 349.938H183.533L184.573 362.573H162.847Z" fill="#2DC1BD"/>
<path d="M137.357 272.191C135.087 272.191 132.94 273.217 131.513 274.982C130.087 276.748 129.535 279.063 130.012 281.282L135.955 308.944C136.698 312.406 139.759 314.879 143.3 314.879H187.566C189.666 314.879 191.67 314.001 193.092 312.456C194.514 310.911 195.226 308.842 195.053 306.75L192.775 279.088C192.454 275.191 189.198 272.191 185.288 272.191H137.357ZM149.37 299.852L146.655 287.216H178.368L179.408 299.852H149.37Z" fill="#2DC1BD"/>
<path d="M210.094 245.26C210.415 249.157 213.671 252.157 217.581 252.157H277.869C281.779 252.157 285.036 249.158 285.356 245.26L287.633 217.599C288.073 213.354 284.415 209.377 280.145 209.47H215.302C211.037 209.377 207.37 213.354 207.815 217.599L210.094 245.26ZM271.99 224.496L270.949 237.131H224.5L223.46 224.496H271.99Z" fill="#2DC1BD"/>
<path d="M307.885 314.878H354.108C357.649 314.878 360.709 312.405 361.454 308.943L367.397 281.281C367.873 279.062 367.322 276.747 365.895 274.981C364.469 273.216 362.321 272.19 360.051 272.19H310.163C306.253 272.19 302.996 275.189 302.676 279.087L300.399 306.749C300.227 308.841 300.938 310.91 302.36 312.455C303.781 313.999 305.785 314.878 307.885 314.878ZM317.082 287.216H350.752L348.037 299.852H316.041L317.082 287.216Z" fill="#2DC1BD"/>
<path d="M313.049 252.158H367.584C371.125 252.158 374.185 249.685 374.93 246.223L380.873 218.562C381.961 214.048 378.17 209.356 373.527 209.471H315.327C311.417 209.471 308.16 212.47 307.84 216.368L305.563 244.029C305.118 248.274 308.781 252.251 313.049 252.158V252.158ZM322.246 224.497H364.228L361.513 237.132H321.205L322.246 224.497Z" fill="#2DC1BD"/>
<path d="M274.983 272.191H220.468C218.368 272.191 216.364 273.069 214.942 274.614C213.52 276.159 212.808 278.228 212.981 280.32L215.258 307.982C215.579 311.879 218.835 314.879 222.745 314.879H272.705C276.615 314.879 279.872 311.88 280.192 307.982L282.469 280.32C282.641 278.228 281.93 276.159 280.508 274.614C279.086 273.069 277.082 272.191 274.983 272.191ZM265.785 299.852H229.665L228.625 287.216H266.826L265.785 299.852Z" fill="#2DC1BD"/>
<path d="M302.72 377.598H340.63C344.171 377.598 347.231 375.125 347.976 371.663L353.92 344.002C354.396 341.783 353.845 339.468 352.418 337.702C350.992 335.937 348.844 334.911 346.574 334.911H304.998C301.088 334.911 297.831 337.91 297.511 341.808L295.234 369.469C295.062 371.561 295.773 373.63 297.195 375.175C298.617 376.72 300.621 377.598 302.72 377.598V377.598ZM311.918 349.938H337.275L334.56 362.573H310.877L311.918 349.938Z" fill="#2DC1BD"/>
<path d="M182.402 423.882C175.28 423.882 169.507 429.656 169.507 436.777C169.507 443.899 175.28 449.673 182.402 449.673C189.524 449.673 195.297 443.899 195.297 436.777C195.297 429.656 189.524 423.882 182.402 423.882Z" fill="#2DC1BD"/>
<path d="M313.049 423.882C305.927 423.882 300.154 429.656 300.154 436.777C300.154 443.899 305.927 449.673 313.049 449.673C320.171 449.673 325.944 443.899 325.944 436.777C325.944 429.656 320.171 423.882 313.049 423.882Z" fill="#2DC1BD"/>
</svg>
