<svg width="394" height="394" viewBox="0 0 394 394" fill="none" xmlns="http://www.w3.org/2000/svg">
<path d="M384.9 170.9L363.6 168.9C361.1 160.3 357.7 152.1 353.2 144.3L366.7 128C370 124 369.7 118.3 366.1 114.6L339.5 87.7004C335.9 84.0004 330 83.7004 326 87.0004L309.7 100.5C302 96.1004 293.7 92.6004 285.2 90.1004L283.2 68.9004C282.7 63.8004 278.4 59.9004 273.2 59.9004H240V29.9004C240 24.4004 235.5 19.9004 230 19.9004C224.5 19.9004 220 24.4004 220 29.9004V79.9004H182.2C166.1 79.9004 150.8 87.5004 141 100.3L99.8 154.6L30.5 173.5C12.5 178.4 0.1 194.7 0 213.4V239.9C0.1 262.7 18.7 281.1 41.5 281.1H46.9C54.4 309 83.1 325.4 111 317.9C128.9 313 143 299 147.8 281.1H220V364.1C220 369.6 224.5 374.1 230 374.1C235.5 374.1 240 369.6 240 364.1V340.1H273.2C278.4 340.1 282.7 336.2 283.2 331L285.2 309.7C293.8 307.2 302 303.8 309.8 299.4L326.1 312.9C330.1 316.2 335.9 315.9 339.5 312.3L366.4 285.4C370 281.8 370.3 275.9 367 271.9L353.5 255.6C357.9 247.8 361.4 239.6 363.9 231.1L384.9 229.1C390 228.6 394 224.3 394 219.1V180.8C394 175.7 390 171.4 384.9 170.9ZM97.3 299.8C79.5 299.8 65 285.3 65 267.5C65 249.7 79.5 235.2 97.3 235.2C115.1 235.2 129.6 249.7 129.6 267.5C129.6 285.3 115.2 299.8 97.3 299.8ZM220 261H149.2C145.7 232.3 119.6 212 91 215.4C67.2 218.3 48.4 237.1 45.4 261H41.4C29.6 261.1 20 251.6 19.9 239.8V213.4C20 203.8 26.4 195.4 35.7 192.8L108.3 173C110.4 172.4 112.3 171.2 113.6 169.4L157 112.5C163 104.6 172.4 100 182.3 100H220V261ZM240 157.5C263.4 149.7 288.7 162.4 296.5 185.9C304.3 209.4 291.6 234.6 268.1 242.4C259 245.4 249.1 245.4 240 242.4V157.5V157.5ZM374 209.9L355 211.7C350.7 212.1 347.1 215.3 346.2 219.5C343.7 230.7 339.2 241.3 332.9 250.9C330.5 254.6 330.8 259.3 333.6 262.7L345.8 277.5L331.8 291.5L317 279.4C313.6 276.6 308.8 276.3 305.1 278.8C295.6 285.1 285 289.6 273.8 292C269.5 292.9 266.4 296.5 266 300.8L264.2 320H240V263.1C274.9 270.9 309.5 248.9 317.2 214C325 179.1 303 144.5 268.1 136.7C258.8 134.6 249.2 134.6 240 136.7V80.0004H264.1L266 99.1004C266.4 103.4 269.6 107 273.8 107.9C285 110.4 295.6 114.9 305.2 121.1C308.9 123.5 313.6 123.2 317 120.4L331.7 108.2L345.5 122.1L333.2 137C330.4 140.4 330.1 145.2 332.6 148.9C338.9 158.4 343.4 169 345.8 180.2C346.8 184.5 350.3 187.6 354.7 188L374 189.9V209.9V209.9Z" fill="#2DC1BD"/>
</svg>
