<svg width="512" height="512" viewBox="0 0 512 512" fill="none" xmlns="http://www.w3.org/2000/svg">
<path d="M120 236C109.715 236 99.6617 239.05 91.1104 244.764C82.559 250.477 75.894 258.599 71.9583 268.1C68.0225 277.602 66.9928 288.058 68.9992 298.145C71.0056 308.232 75.9581 317.497 83.2305 324.77C90.5028 332.042 99.7683 336.994 109.855 339.001C119.942 341.007 130.398 339.978 139.9 336.042C149.401 332.106 157.523 325.441 163.236 316.89C168.95 308.338 172 298.285 172 288C171.984 274.214 166.501 260.996 156.752 251.248C147.004 241.499 133.786 236.016 120 236V236ZM120 312C115.253 312 110.613 310.592 106.666 307.955C102.72 305.318 99.6434 301.57 97.8269 297.184C96.0104 292.799 95.5351 287.973 96.4612 283.318C97.3872 278.662 99.673 274.386 103.029 271.029C106.386 267.673 110.662 265.387 115.318 264.461C119.973 263.535 124.799 264.01 129.184 265.827C133.57 267.643 137.318 270.72 139.955 274.666C142.592 278.613 144 283.253 144 288C144 294.365 141.471 300.47 136.971 304.971C132.47 309.471 126.365 312 120 312V312Z" fill="#2DC1BD"/>
<path d="M408 236C397.715 236 387.662 239.05 379.11 244.764C370.559 250.477 363.894 258.599 359.958 268.1C356.023 277.602 354.993 288.058 356.999 298.145C359.006 308.232 363.958 317.497 371.23 324.77C378.503 332.042 387.768 336.994 397.855 339.001C407.942 341.007 418.398 339.978 427.9 336.042C437.401 332.106 445.523 325.441 451.236 316.89C456.95 308.338 460 298.285 460 288C459.984 274.214 454.501 260.996 444.752 251.248C435.004 241.499 421.786 236.016 408 236V236ZM408 312C403.253 312 398.613 310.592 394.666 307.955C390.72 305.318 387.643 301.57 385.827 297.184C384.01 292.799 383.535 287.973 384.461 283.318C385.387 278.662 387.673 274.386 391.029 271.029C394.386 267.673 398.662 265.387 403.318 264.461C407.973 263.535 412.799 264.01 417.184 265.827C421.57 267.643 425.318 270.72 427.955 274.666C430.592 278.613 432 283.253 432 288C432 294.365 429.471 300.47 424.971 304.971C420.47 309.471 414.365 312 408 312Z" fill="#2DC1BD"/>
<path d="M477.4 193.04L384 176L304.485 110.025C296.604 103.552 286.724 100.009 276.526 100H159.38C152.778 99.9845 146.259 101.462 140.309 104.322C134.359 107.181 129.133 111.349 125.021 116.514L74.232 176H40C30.4555 176.011 21.3049 179.807 14.5558 186.556C7.80683 193.305 4.01059 202.456 4 212V256C4.01297 267.666 8.65284 278.85 16.9016 287.099C25.1504 295.347 36.3345 299.987 48 300H57.145C55.37 290.743 55.6617 281.208 57.9994 272.076C60.3371 262.945 64.6629 254.442 70.6678 247.176C76.6728 239.911 84.2085 234.061 92.7364 230.046C101.264 226.03 110.574 223.948 120 223.948C129.426 223.948 138.736 226.03 147.264 230.046C155.792 234.061 163.327 239.911 169.332 247.176C175.337 254.442 179.663 262.945 182.001 272.076C184.338 281.208 184.63 290.743 182.855 300H345.145C343.37 290.743 343.662 281.208 345.999 272.076C348.337 262.945 352.663 254.442 358.668 247.176C364.673 239.911 372.208 234.061 380.736 230.046C389.264 226.03 398.574 223.948 408 223.948C417.426 223.948 426.736 226.03 435.264 230.046C443.792 234.061 451.327 239.911 457.332 247.176C463.337 254.442 467.663 262.945 470.001 272.076C472.338 281.208 472.63 290.743 470.855 300H472C481.545 299.99 490.695 296.193 497.444 289.444C504.193 282.695 507.989 273.545 508 264V228.632C508.043 220.008 504.971 211.659 499.349 205.12C493.727 198.58 485.933 194.291 477.4 193.04V193.04ZM180 164C180 167.183 178.736 170.235 176.485 172.485C174.235 174.736 171.183 176 168 176H115.245C114.098 176.001 112.974 175.673 112.008 175.054C111.042 174.436 110.273 173.554 109.793 172.512C109.312 171.47 109.141 170.312 109.299 169.176C109.456 168.039 109.936 166.972 110.682 166.1L145.598 125.2C146.725 123.882 148.125 122.824 149.7 122.099C151.276 121.374 152.99 120.999 154.724 121H168C171.183 121 174.235 122.264 176.485 124.515C178.736 126.765 180 129.818 180 133V164ZM240 220H224C220.817 220 217.765 218.736 215.515 216.485C213.264 214.235 212 211.183 212 208C212 204.818 213.264 201.765 215.515 199.515C217.765 197.264 220.817 196 224 196H240C243.183 196 246.235 197.264 248.485 199.515C250.736 201.765 252 204.818 252 208C252 211.183 250.736 214.235 248.485 216.485C246.235 218.736 243.183 220 240 220ZM334.479 176.294L219.972 176.028C216.794 176.021 213.749 174.753 211.505 172.504C209.26 170.254 208 167.206 208 164.028V133C208 129.818 209.264 126.765 211.515 124.515C213.765 122.264 216.817 121 220 121H277.548C280.245 121 282.864 121.909 284.981 123.58L338.209 165.58C339.19 166.353 339.906 167.412 340.256 168.611C340.607 169.809 340.574 171.088 340.164 172.267C339.753 173.446 338.985 174.468 337.966 175.19C336.947 175.912 335.728 176.298 334.479 176.294V176.294Z" fill="#2DC1BD"/>
</svg>
