<svg width="372" height="372" viewBox="0 0 372 372" fill="none" xmlns="http://www.w3.org/2000/svg">
<g clip-path="url(#clip0)">
<path d="M37.8331 212.348C37.8231 212.354 37.8121 212.358 37.8011 212.365C33.7741 214.458 32.0251 219.294 33.7861 223.479C35.5521 227.678 40.2511 229.809 44.5731 228.371L166.423 187.83L143.639 225.037C141.984 227.74 142.334 231.215 144.495 233.534C146.656 235.852 150.098 236.446 152.912 234.983L176.806 222.567C177.492 222.211 178.115 221.744 178.65 221.184L249.435 147.243L336.793 101.661C369.878 83.8261 366.045 70.1161 364.083 66.3401C362.562 63.4121 359.161 59.4861 351.604 57.4101C343.939 55.3041 333.583 55.4721 319.951 57.9241C315.4 58.7421 312.888 58.6731 310.228 58.6001C300.877 58.3441 294.534 58.9711 263.04 75.3361L90.7881 164.851L23.9881 130.183C21.4691 128.876 18.4721 128.877 15.9531 130.187L4.69708 136.037C2.38008 137.241 0.725083 139.42 0.187083 141.975C-0.350917 144.531 0.285083 147.193 1.91908 149.228L48.2831 206.977L37.8331 212.348Z" fill="#2DC1BD"/>
<path d="M355.052 282.501H28.9482C19.7782 282.501 12.3442 289.937 12.3442 299.105C12.3442 308.273 19.7782 315.709 28.9482 315.709H355.052C364.222 315.709 371.656 308.275 371.656 299.105C371.655 289.934 364.222 282.501 355.052 282.501Z" fill="#2DC1BD"/>
</g>
<defs>
<clipPath id="clip0">
<rect width="371.656" height="371.656" fill="white"/>
</clipPath>
</defs>
</svg>
