<svg width="512" height="512" viewBox="0 0 512 512" fill="none" xmlns="http://www.w3.org/2000/svg">
<path d="M489.414 22.6523C486.536 19.7482 482.901 17.7087 478.923 16.7652C474.944 15.8218 470.781 16.012 466.905 17.3144C451.911 22.2896 437.876 29.7875 425.404 39.4853L371.092 81.6825C370.829 81.887 370.579 82.1075 370.343 82.3427L302.028 150.658L265.135 136.377L267.578 135.155C268.347 134.77 269.049 134.265 269.657 133.657L293.657 109.657C295.157 108.157 296 106.122 296 104V87.9999C296 85.8782 295.157 83.8433 293.657 82.3427L277.657 66.3427C276.157 64.8427 274.122 64 272 63.9999H256C253.878 64 251.843 64.8427 250.343 66.3427L226.343 90.3427C225.735 90.9513 225.229 91.6536 224.845 92.4228L212.966 116.182L58.8877 56.539C57.6215 56.0494 56.2516 55.8898 54.9068 56.0753C53.562 56.2609 52.2865 56.7854 51.2002 57.5995L19.2002 81.5995C18.1442 82.3916 17.3006 83.4326 16.7446 84.6298C16.1886 85.827 15.9375 87.1432 16.0136 88.461C16.0897 89.7788 16.4906 91.0573 17.1807 92.1825C17.8708 93.3078 18.8286 94.2448 19.9687 94.9101L211.075 206.389L228.686 224L154.343 298.343C154.004 298.682 153.696 299.052 153.423 299.446L121.388 345.719L33.5693 328.155C32.2778 327.897 30.9424 327.961 29.6818 328.343C28.4211 328.725 27.2742 329.411 26.3427 330.343L18.3427 338.343C17.4957 339.19 16.8498 340.216 16.4526 341.347C16.0554 342.477 15.917 343.682 16.0478 344.873C16.1786 346.063 16.5751 347.21 17.2081 348.227C17.8411 349.244 18.6944 350.106 19.705 350.749L87.8735 394.129L81.4228 403.446C80.3563 404.987 79.8642 406.852 80.0323 408.718C80.2004 410.584 81.0181 412.332 82.3427 413.657L98.3427 429.657C99.6677 430.982 101.415 431.8 103.281 431.968C105.148 432.136 107.013 431.644 108.554 430.577L117.871 424.126L161.251 492.295C161.894 493.306 162.756 494.159 163.773 494.792C164.79 495.425 165.936 495.821 167.127 495.952C168.318 496.083 169.523 495.945 170.653 495.547C171.783 495.15 172.81 494.504 173.657 493.657L189.657 477.657C190.666 476.648 191.386 475.388 191.744 474.007C192.102 472.626 192.084 471.174 191.692 469.803L168.607 389.002L212.554 358.577C212.948 358.304 213.318 357.996 213.657 357.657L288 283.314L305.611 300.925L417.09 492.031C417.755 493.171 418.692 494.129 419.817 494.819C420.942 495.509 422.22 495.91 423.538 495.986C423.693 495.995 423.848 496 424.001 496C425.243 496 426.468 495.711 427.578 495.155C428.689 494.6 429.655 493.793 430.4 492.8L454.4 460.8C455.215 459.714 455.739 458.438 455.925 457.093C456.11 455.748 455.951 454.378 455.461 453.112L395.818 299.035L419.577 287.155C420.346 286.771 421.049 286.265 421.657 285.657L445.657 261.657C447.157 260.157 448 258.122 448 256V240C448 237.878 447.157 235.843 445.657 234.343L429.657 218.343C428.157 216.843 426.122 216 424 216H408C405.878 216 403.843 216.843 402.343 218.343L378.343 242.343C377.735 242.951 377.23 243.653 376.845 244.422L375.623 246.865L361.342 209.972L429.657 141.657C429.892 141.421 430.113 141.171 430.317 140.908L472.596 86.4911C482.234 74.0983 489.699 60.1599 494.673 45.2695C494.675 45.2617 494.704 45.1767 494.706 45.1699C496.016 41.297 496.214 37.1345 495.279 33.1545C494.344 29.1746 492.312 25.5363 489.414 22.6523V22.6523ZM238.575 100.739L259.313 79.9999H268.686L280 91.3134V100.686L272 108.686L261.657 98.3427L250.343 109.657L260.686 120L259.261 121.425L244.97 128.571L227.953 121.984L238.575 100.739ZM57.25 73.0624L289.658 163.027L263.406 189.279L228.998 161.753C228.558 161.401 228.082 161.097 227.578 160.845L163.578 128.845C162.467 128.289 161.242 127.999 160 127.999C158.758 127.999 157.533 128.289 156.422 128.845L131.37 141.371L38.4463 87.1649L57.25 73.0624ZM221.657 194.343C221.171 193.857 220.625 193.436 220.031 193.09L147.883 151.003L160 144.944L219.664 174.776L252.022 200.663L240 212.685L221.657 194.343ZM42.4267 346.244L111.465 360.052L96.9873 380.964L42.4267 346.244ZM175.015 469.672L169.395 475.291L131.036 415.013L154.714 398.62L175.015 469.672ZM317.657 290.343L299.314 272L311.337 259.977L337.224 292.336L367.056 352L360.997 364.117L318.91 291.969C318.564 291.375 318.143 290.829 317.657 290.343ZM390.575 252.739L392 251.314L402.343 261.657L413.657 250.343L403.314 240L411.313 232H420.686L432 243.313V252.686L411.261 273.425L390.016 284.047L383.429 267.03L390.575 252.739ZM438.937 454.75L424.835 473.554L370.629 380.63L383.155 355.578C383.711 354.467 384 353.242 384 352C384 350.758 383.711 349.533 383.155 348.422L351.155 284.422C350.903 283.918 350.599 283.442 350.247 283.002L322.721 248.594L348.973 222.341L438.937 454.75ZM423.246 123.931L413.657 114.343L402.343 125.657L412.686 136L400 148.685L389.657 138.343L378.343 149.657L388.686 160L376 172.685L365.657 162.343L354.343 173.657L364.686 184L352 196.685L341.657 186.343L330.343 197.657L340.686 208L328 220.686L317.657 210.343L306.343 221.657L316.686 232L304 244.686L293.657 234.343L282.343 245.657L292.686 256L280 268.686L269.657 258.343L258.343 269.657L268.686 280L256 292.686L245.657 282.343L234.343 293.657L244.686 304L202.853 345.833L104.935 413.622L98.3779 407.064L166.167 309.146L207.999 267.314L217.593 276.907L228.907 265.593L219.314 255.999L231.999 243.314L241.593 252.907L252.907 241.593L243.314 232L256 219.314L265.593 228.907L276.907 217.593L267.314 208L280 195.314L289.593 204.907L300.907 193.593L291.314 184L304 171.314L313.593 180.907L324.907 169.593L315.314 160L328 147.314L337.593 156.907L348.907 145.593L339.314 136L352 123.314L361.593 132.907L372.907 121.593L363.314 112L376 99.3144L385.593 108.907L396.907 97.5927L388.069 88.7543L430.227 55.9999H440C444.242 56.0048 448.309 57.692 451.308 60.6916C454.308 63.6911 455.995 67.7579 456 71.9999V81.7729L423.246 123.931ZM479.539 40.0741C479.537 40.0819 479.508 40.1669 479.506 40.1737C477.054 47.4851 473.92 54.5496 470.145 61.2738C468.544 56.8083 465.975 52.7522 462.623 49.3964C459.27 46.0406 455.216 43.4682 450.752 41.8637C457.507 38.0817 464.604 34.9459 471.949 32.498C473.005 32.1472 474.137 32.0968 475.22 32.3524C476.303 32.6081 477.293 33.1596 478.08 33.9456C478.868 34.7315 479.421 35.7208 479.679 36.803C479.936 37.8853 479.888 39.0178 479.539 40.0741V40.0741Z" fill="#2DC1BD"/>
<path d="M196.686 304L128 372.686C124.876 375.81 124.876 380.876 128 384C131.124 387.124 136.19 387.124 139.314 384L208 315.314C211.124 312.19 211.124 307.124 208 304C204.876 300.876 199.81 300.876 196.686 304Z" fill="#2DC1BD"/>
</svg>
