<svg width="425" height="425" viewBox="0 0 425 425" fill="none" xmlns="http://www.w3.org/2000/svg">
<g clip-path="url(#clip0)">
<path d="M352.4 34.0186C320 34.0186 294.4 60.0186 294.4 92.4186C294.4 124.819 320.4 150.419 352.4 150.419C384.4 150.419 410.8 124.419 410.8 92.0186C410.8 59.6185 384.8 34.0186 352.4 34.0186ZM352.4 137.619C327.2 137.619 306.8 117.219 306.8 92.0186C306.8 66.8186 327.6 46.8186 352.4 46.8186C377.6 46.8186 398 67.2186 398 92.4186C398 117.619 377.6 137.619 352.4 137.619Z" fill="#2DC1BD"/>
<path d="M370.8 101.219C370.4 100.019 370.4 99.2189 369.6 98.0189C369.2 97.2189 368.8 96.0189 368 95.2189C367.2 94.4189 366.8 93.6189 366 92.8189C365.2 92.0189 364.4 91.2189 363.2 90.8189C362.4 90.0189 361.2 89.6189 360.4 89.2189C359.2 88.8189 358.4 88.0189 357.2 87.6189C356 87.2189 354.8 86.8189 354 86.4189C353.6 86.4189 352.8 86.0189 352.4 85.6189C352 85.2189 351.2 85.2189 350.8 84.8189C350.4 84.4189 349.6 84.4189 349.2 84.0189C348.8 83.6189 348.4 83.2189 348 82.8189C347.6 82.4189 347.2 82.0189 347.2 81.2189C346.8 80.8189 346.8 80.0189 346.8 79.6189C346.8 78.8189 346.8 78.4189 346.8 77.6189C346.8 77.2189 347.2 76.4189 347.2 76.0189C347.6 75.6189 347.6 74.8189 348 74.4189C348.4 74.0189 348.8 73.6189 349.2 73.2189C349.6 72.8189 350.4 72.4189 351.2 72.4189C352 72.0189 352.4 72.0189 353.2 72.0189C353.6 72.0189 354 72.0189 354.4 72.0189C354.8 72.0189 355.2 72.0189 355.6 72.0189C356.4 72.0189 356.8 72.0189 357.6 72.4189C358.4 72.4189 359.2 72.8189 359.6 72.8189C360 72.8189 360.8 73.2189 361.2 73.2189C362 73.2189 362.4 73.6189 362.8 73.6189L364.8 74.4189L365.2 72.0189L366 65.6189V64.0189L364.4 63.6189C364 63.6189 363.2 63.2189 362.8 63.2189C362.4 63.2189 362 62.8189 361.2 62.8189C360.8 62.8189 360 62.4189 359.2 62.4189C358.4 62.4189 358 62.0189 357.2 62.0189H356.8V56.4189V54.4189H354.8H349.2H347.2V56.4189V62.4189H346.8C345.6 62.8189 344.4 63.2189 343.2 64.0189C342 64.4189 341.2 65.2189 340.4 66.0189C339.6 66.8189 338.8 67.6189 338 68.8189C337.2 69.6189 336.8 70.8189 336.4 72.0189C336 73.2189 335.6 74.4189 335.2 75.6189C334.8 76.8189 334.8 78.4189 334.8 79.6189C334.8 80.8189 334.8 81.6189 335.2 82.8189C335.6 84.0189 335.6 84.8189 336.4 86.0189C336.8 86.8189 337.6 88.0189 338 88.8189C338.8 89.6189 339.2 90.4189 340 91.2189C340.8 92.0189 341.6 92.8189 342.8 93.2189C343.6 94.0189 344.8 94.4189 345.6 94.8189C346.8 95.2189 348 96.0189 348.8 96.4189C350 96.8189 351.2 97.2189 352 97.6189C352.4 97.6189 353.2 98.0189 353.6 98.4189C354 98.8189 354.8 98.8189 355.2 99.2189C355.6 99.6189 356 100.019 356.4 100.019C356.8 100.419 357.2 100.819 357.6 101.219C358 101.619 358 102.019 358.4 102.819C358.4 103.219 358.8 104.019 358.8 104.819C358.8 105.619 358.8 106.019 358.8 106.819C358.8 107.219 358.4 108.019 358 108.419C357.6 108.819 357.2 109.219 356.8 109.619C356.4 110.019 356 110.419 355.2 110.819C354.8 111.219 354 111.219 353.6 111.619C353.2 111.619 352.4 112.019 351.6 112.019C351.2 112.019 350.8 112.019 350 112.019C349.6 112.019 348.8 112.019 348.4 112.019C347.6 112.019 346.8 112.019 346.4 112.019C345.6 112.019 344.8 111.619 344.4 111.619C343.6 111.619 342.8 111.219 342 110.819C341.2 110.419 340.4 110.419 339.6 110.019C339.2 110.019 338.8 109.619 338.4 109.619C338 109.619 337.6 109.219 337.2 109.219L334.8 108.019L334.4 110.819L333.6 118.019V119.219L334.8 119.619C336.4 119.219 337.2 119.619 338.4 120.019C339.2 120.419 340.4 120.819 341.2 120.819C342 121.219 343.2 121.219 344.4 121.619C345.6 122.019 346.4 122.019 347.6 122.019H348.4V128.019V130.019H350.4H356H358V128.019V121.619H358.4C359.6 121.219 360.8 120.819 362 120.019C363.2 119.619 364 118.819 365.2 118.019C366 117.219 366.8 116.419 367.6 115.219C368.4 114.419 368.8 113.219 369.6 112.019C370 110.819 370.4 109.619 370.8 108.419C371.2 107.219 371.2 106.019 371.2 104.419C371.2 103.219 371.2 102.419 370.8 101.219Z" fill="#2DC1BD"/>
<path d="M324.4 158.019C322.4 155.219 318 154.819 315.2 156.819L250.4 208.419L166.8 173.619C164.8 172.819 162.4 173.219 160.8 174.419L71.2 238.419C68.4 240.419 67.6 244.419 69.6 247.219C70.8 249.219 72.8 250.019 74.8 250.019C76 250.019 77.2 249.619 78.4 248.819L165.2 186.819L249.2 221.619C251.2 222.419 254 222.019 255.6 220.819L323.2 167.219C326 165.219 326.4 160.819 324.4 158.019Z" fill="#2DC1BD"/>
<path d="M418 377.219H388.4V192.019C388.4 188.419 385.6 185.619 382 185.619H323.2C319.6 185.619 316.8 188.419 316.8 192.019V377.219H295.2V256.019C295.2 252.419 292.4 249.619 288.8 249.619H229.6C226 249.619 223.2 252.419 223.2 256.019V377.219H201.6V246.419C201.6 242.819 198.8 240.019 195.2 240.019H136.4C132.8 240.019 130 242.819 130 246.419V377.219H108.4V284.019C108.4 280.419 105.6 277.619 102 277.619H42.8C39.2 277.619 36.4 280.419 36.4 284.019V377.219H6.4C2.8 377.219 0 380.019 0 383.619C0 387.219 2.8 390.019 6.4 390.019H42.4H101.2H136.4H195.2H229.6H288.4H322.8H381.6H417.6C421.2 390.019 424 387.219 424 383.619C424.4 380.019 421.6 377.219 418 377.219ZM95.2 377.219H49.2V290.419H95.2V377.219ZM188.8 377.219H142.8V252.819H188.8V377.219ZM282 377.219H236V262.419H282V377.219ZM375.6 377.219H329.6V198.419H375.6V377.219Z" fill="#2DC1BD"/>
</g>
<defs>
<clipPath id="clip0">
<rect width="424.038" height="424.038" fill="white"/>
</clipPath>
</defs>
</svg>
