<svg width="512" height="512" viewBox="0 0 512 512" fill="none" xmlns="http://www.w3.org/2000/svg">
<path d="M343.704 301.492C348.528 306.316 356.936 306.316 361.756 301.492L384.012 279.24C388.992 274.264 388.992 266.164 384.012 261.188L371.296 248.472C378.768 236.54 384.128 223.616 387.272 209.976H405.224C412.264 209.976 417.988 204.248 417.988 197.212V165.74C417.988 158.7 412.26 152.976 405.224 152.976H387.272C384.132 139.332 378.768 126.412 371.296 114.48L384.012 101.764C386.424 99.3516 387.752 96.1476 387.752 92.7356C387.752 89.3236 386.424 86.1196 384.012 83.7116L361.76 61.4556C356.94 56.6316 348.528 56.6316 343.708 61.4556L330.992 74.1716C319.06 66.6996 306.14 61.3356 292.496 58.1956V40.2396C292.496 33.1996 286.768 27.4756 279.732 27.4756H248.26C241.22 27.4756 235.496 33.2036 235.496 40.2396V58.1956C221.852 61.3356 208.932 66.6956 197 74.1716L184.284 61.4556C179.46 56.6316 171.052 56.6316 166.232 61.4556L143.976 83.7076C141.564 86.1196 140.236 89.3236 140.236 92.7356C140.236 96.1476 141.564 99.3516 143.976 101.76L156.692 114.476C149.22 126.408 143.856 139.328 140.716 152.972H122.76C115.72 152.972 109.996 158.7 109.996 165.736V197.208C109.996 204.248 115.724 209.972 122.76 209.972H140.712C143.852 223.616 149.216 236.536 156.688 248.468L143.972 261.184C138.992 266.16 138.992 274.26 143.972 279.236L166.224 301.488C171.048 306.312 179.456 306.312 184.276 301.488L196.992 288.772C208.924 296.244 221.848 301.604 235.488 304.748V322.704C235.488 329.74 241.216 335.468 248.252 335.468H279.724C286.764 335.468 292.488 329.74 292.488 322.704V304.748C306.128 301.608 319.052 296.248 330.984 288.772L343.704 301.492Z" fill="#E6E7E8"/>
<path d="M145.784 297.799C138.416 290.507 126.42 290.507 119.052 297.799C111.684 305.083 111.456 316.723 118.532 324.295L143.024 350.499C143.644 351.163 143.636 352.195 143 352.847C142.568 353.291 142.06 353.359 141.78 353.359C141.448 353.335 140.976 353.291 140.536 352.819L86.284 294.575C82.724 290.791 80.476 286.075 79.784 280.927L72.204 224.891C70.788 214.427 61.756 206.535 51.192 206.535C45.288 206.535 39.804 208.903 35.76 213.203C31.712 217.503 29.676 223.115 30.056 229.279L41.232 316.139C42.608 326.823 46.828 336.959 53.448 345.439C70.012 366.675 104.22 410.023 118.16 427.675C121.772 432.255 123.72 437.751 123.792 443.579C123.948 456.587 123.992 471.803 124.004 487.611C124.008 494.739 129.812 500.535 136.932 500.535H196.536C203.644 500.535 209.448 494.751 209.464 487.643L209.752 386.859C209.752 370.475 203.072 354.475 191.424 342.951L145.784 297.799Z" fill="#E6E7E8"/>
<path d="M492.224 213.195C488.176 208.895 482.692 206.527 476.788 206.527C466.228 206.527 457.196 214.419 455.78 224.883L448.2 280.923C447.508 286.067 445.256 290.787 441.684 294.583L387.444 352.815C387.012 353.279 386.488 353.355 386.216 353.355C385.964 353.331 385.42 353.295 384.976 352.839C384.344 352.187 384.332 351.159 384.956 350.491L409.448 324.287C416.524 316.715 416.296 305.079 408.928 297.791C401.556 290.503 389.564 290.503 382.196 297.791L336.556 342.935C324.908 354.455 318.228 370.459 318.228 386.851L318.516 487.623C318.536 494.731 324.336 500.515 331.444 500.515H391.048C398.172 500.515 403.972 494.715 403.976 487.591C403.988 471.783 404.032 456.571 404.188 443.563C404.26 437.735 406.204 432.235 409.82 427.659C423.76 410.007 457.968 366.659 474.532 345.423C481.148 336.939 485.372 326.807 486.748 316.123L497.948 228.991C498.308 223.107 496.272 217.495 492.224 213.195V213.195Z" fill="#E6E7E8"/>
<path d="M397.988 181.208V149.732C397.988 144.892 394.064 140.968 389.224 140.968H368.044C364.868 125.328 358.7 110.784 350.188 97.9237L365.184 82.9277C368.608 79.5037 368.608 73.9557 365.184 70.5317L342.928 48.2757C339.504 44.8517 333.956 44.8517 330.532 48.2757L315.536 63.2757C302.68 54.7597 288.132 48.5917 272.492 45.4157V24.2357C272.492 19.3957 268.568 15.4717 263.728 15.4717H232.256C227.416 15.4717 223.492 19.3957 223.492 24.2357V45.4157C207.852 48.5917 193.308 54.7597 180.448 63.2757L165.452 48.2757C162.028 44.8517 156.48 44.8517 153.056 48.2757L130.8 70.5317C127.376 73.9557 127.376 79.5037 130.8 82.9277L145.796 97.9237C137.28 110.78 131.112 125.328 127.94 140.968H106.76C101.92 140.968 97.9961 144.892 97.9961 149.732V181.208C97.9961 186.048 101.92 189.972 106.76 189.972H127.94C131.116 205.612 137.284 220.156 145.796 233.016L130.8 248.012C127.376 251.436 127.376 256.984 130.8 260.408L153.056 282.664C156.48 286.088 162.028 286.088 165.452 282.664L180.448 267.668C193.304 276.184 207.852 282.352 223.492 285.528V306.708C223.492 311.548 227.416 315.472 232.256 315.472H263.728C268.568 315.472 272.492 311.548 272.492 306.708V285.528C288.132 282.352 302.676 276.184 315.536 267.668L330.532 282.664C333.956 286.088 339.504 286.088 342.928 282.664L365.184 260.408C368.608 256.984 368.608 251.436 365.184 248.012L350.188 233.016C358.704 220.16 364.872 205.612 368.044 189.972H389.224C394.064 189.972 397.988 186.048 397.988 181.208V181.208Z" fill="#2DC1BD"/>
<path d="M112 471.599C111.988 455.775 111.944 440.547 111.788 427.523C111.708 420.851 109.432 414.423 105.296 409.187C91.3202 391.487 57.2482 348.319 40.6002 326.971C34.4162 319.043 30.4802 309.595 29.1962 299.623L18.0202 212.763C17.4282 202.875 25.2842 194.531 35.1922 194.531C43.8002 194.531 51.0842 200.895 52.2402 209.427L59.8202 265.463C60.6242 271.403 63.2642 276.947 67.3722 281.315L121.612 339.543C123.832 341.927 127.6 341.967 129.872 339.631C131.992 337.451 132.028 333.987 129.948 331.763L105.456 305.559C99.9082 299.623 100.092 290.351 105.868 284.639C111.716 278.855 121.128 278.855 126.976 284.639L172.616 329.783C183.584 340.631 189.756 355.419 189.756 370.843L189.472 471.615C189.46 476.535 185.464 480.519 180.544 480.519H120.936C116 480.527 112.004 476.527 112 471.599V471.599Z" fill="#2DC1BD"/>
<path d="M383.98 471.599C383.992 455.775 384.036 440.547 384.192 427.523C384.272 420.851 386.548 414.423 390.684 409.187C404.66 391.487 438.732 348.319 455.38 326.971C461.564 319.043 465.5 309.595 466.784 299.623L477.96 212.763C478.552 202.875 470.696 194.531 460.788 194.531C452.18 194.531 444.896 200.895 443.74 209.427L436.16 265.463C435.356 271.403 432.716 276.947 428.608 281.315L374.368 339.543C372.148 341.927 368.38 341.967 366.108 339.631C363.988 337.451 363.952 333.987 366.032 331.763L390.524 305.559C396.072 299.623 395.888 290.351 390.112 284.639C384.264 278.855 374.852 278.855 369.004 284.639L323.364 329.783C312.396 340.631 306.224 355.419 306.224 370.843L306.512 471.615C306.524 476.535 310.52 480.519 315.44 480.519H375.048C379.98 480.527 383.976 476.527 383.98 471.599V471.599Z" fill="#2DC1BD"/>
<path d="M247.992 133.448C265.34 133.448 279.404 119.443 279.404 102.168C279.404 84.8922 265.34 70.8877 247.992 70.8877C230.644 70.8877 216.58 84.8922 216.58 102.168C216.58 119.443 230.644 133.448 247.992 133.448Z" fill="white"/>
<path d="M327.704 285.492C332.68 290.468 340.78 290.468 345.756 285.492L368.012 263.236C372.992 258.26 372.992 250.16 368.012 245.184L355.296 232.468C362.768 220.536 368.132 207.612 371.272 193.968H389.224C396.264 193.968 401.988 188.24 401.988 181.204V149.728C401.988 142.688 396.26 136.964 389.224 136.964H371.268C368.128 123.32 362.768 110.4 355.292 98.4677L368.008 85.7517C370.42 83.3397 371.748 80.1357 371.748 76.7237C371.748 73.3117 370.42 70.1077 368.008 67.6997L345.752 45.4437C340.776 40.4677 332.676 40.4677 327.7 45.4437L314.984 58.1597C303.056 50.6877 290.136 45.3277 276.488 42.1837V24.2357C276.488 17.1997 270.76 11.4717 263.724 11.4717H232.252C225.212 11.4717 219.488 17.1997 219.488 24.2357V42.1917C205.844 45.3317 192.92 50.6917 180.992 58.1677L168.276 45.4477C163.296 40.4757 155.196 40.4717 150.224 45.4477L127.972 67.6997C125.56 70.1117 124.232 73.3157 124.232 76.7277C124.232 80.1397 125.56 83.3437 127.972 85.7517L140.688 98.4677C133.216 110.4 127.856 123.324 124.712 136.964H106.756C99.7202 136.964 93.9922 142.692 93.9922 149.728V181.204C93.9922 188.24 99.7202 193.968 106.756 193.968H124.712C127.852 207.608 133.212 220.532 140.688 232.468L127.972 245.184C122.992 250.16 122.992 258.26 127.972 263.236L150.224 285.492C155.2 290.464 163.3 290.464 168.276 285.492L180.992 272.776C192.924 280.252 205.848 285.612 219.488 288.752V306.708C219.488 313.744 225.216 319.472 232.252 319.472H263.724C270.764 319.472 276.488 313.744 276.488 306.708V288.752C290.132 285.612 303.052 280.252 314.984 272.776L327.704 285.492ZM271.696 281.604C269.832 281.984 268.492 283.62 268.492 285.524V306.704C268.492 309.332 266.352 311.468 263.728 311.468H232.256C229.628 311.468 227.492 309.332 227.492 306.704V285.524C227.492 283.62 226.152 281.984 224.288 281.604C209.412 278.584 195.404 272.772 182.66 264.332C181.984 263.884 181.216 263.664 180.452 263.664C179.42 263.664 178.396 264.064 177.62 264.836L162.62 279.832C160.76 281.692 157.74 281.688 155.88 279.832L133.628 257.576C131.772 255.716 131.772 252.696 133.628 250.836L148.624 235.84C149.968 234.496 150.18 232.388 149.132 230.804C140.692 218.056 134.88 204.048 131.86 189.172C131.48 187.308 129.844 185.968 127.94 185.968H106.76C104.132 185.968 101.996 183.832 101.996 181.204V149.728C101.996 147.1 104.132 144.964 106.76 144.964H127.94C129.844 144.964 131.48 143.624 131.86 141.76C134.88 126.88 140.692 112.876 149.132 100.128C150.18 98.5437 149.968 96.4357 148.624 95.0917L133.628 80.0917C132.728 79.1917 132.232 77.9997 132.232 76.7237C132.232 75.4477 132.728 74.2557 133.628 73.3557L155.88 51.1037C157.74 49.2437 160.76 49.2477 162.62 51.1037L177.62 66.1037C178.964 67.4517 181.072 67.6637 182.656 66.6077C195.4 58.1677 209.404 52.3557 224.288 49.3357C226.152 48.9557 227.492 47.3197 227.492 45.4157V24.2357C227.492 21.6077 229.632 19.4717 232.256 19.4717H263.728C266.356 19.4717 268.492 21.6077 268.492 24.2357V45.4157C268.492 47.3197 269.832 48.9557 271.696 49.3357C286.58 52.3557 300.584 58.1677 313.328 66.6077C314.916 67.6637 317.02 67.4477 318.364 66.1037L333.364 51.1037C335.224 49.2477 338.244 49.2477 340.104 51.1037L362.36 73.3597C363.26 74.2597 363.756 75.4517 363.756 76.7277C363.756 78.0037 363.26 79.1957 362.36 80.0957L347.36 95.0957C346.016 96.4397 345.804 98.5477 346.856 100.132C355.296 112.88 361.108 126.884 364.128 141.76C364.508 143.624 366.144 144.964 368.048 144.964H389.228C391.856 144.964 393.992 147.104 393.992 149.728V181.204C393.992 183.832 391.852 185.968 389.228 185.968H368.048C366.144 185.968 364.508 187.308 364.128 189.172C361.108 204.052 355.296 218.056 346.852 230.804C345.804 232.388 346.016 234.496 347.36 235.84L362.36 250.836C364.216 252.696 364.216 255.716 362.36 257.576L340.104 279.832C338.244 281.688 335.224 281.688 333.364 279.832L318.364 264.832C317.02 263.488 314.912 263.272 313.328 264.328C300.58 272.776 286.576 278.584 271.696 281.604V281.604Z" fill="#2DC1BD"/>
<path d="M129.784 281.799C122.416 274.511 110.424 274.511 103.052 281.799C95.6841 289.083 95.4521 300.723 102.532 308.295L127.024 334.499C127.644 335.163 127.632 336.191 127.004 336.843C126.572 337.291 126.06 337.359 125.784 337.359C125.468 337.307 124.98 337.291 124.54 336.819L70.2841 278.571C66.7241 274.791 64.4761 270.071 63.7801 264.927L56.2001 208.887C54.7841 198.419 45.7521 190.527 35.1881 190.527C29.2841 190.527 23.8041 192.895 19.7561 197.195C15.7081 201.495 13.6721 207.107 14.0521 213.271L25.2281 300.131C26.6041 310.815 30.8241 320.947 37.4441 329.431C54.8521 351.747 91.3761 398.015 102.156 411.667C105.768 416.247 107.716 421.747 107.784 427.575C107.94 440.579 107.984 455.795 107.996 471.603C108 478.731 113.804 484.527 120.924 484.527H180.528C187.636 484.527 193.44 478.743 193.456 471.635L193.74 370.851C193.74 354.467 187.06 338.467 175.412 326.947L129.784 281.799ZM185.464 471.611C185.456 474.323 183.244 476.527 180.536 476.527H120.928C118.212 476.527 116 474.315 116 471.595C115.988 455.755 115.944 440.511 115.788 427.479C115.7 419.979 113.088 412.603 108.436 406.711C97.6601 393.063 61.1481 346.811 43.7561 324.511C38.0201 317.159 34.3561 308.375 33.1681 299.111L22.0121 212.523C21.7921 208.855 23.0601 205.355 25.5801 202.683C28.1001 200.007 31.5121 198.531 35.1881 198.531C41.7641 198.531 47.3881 203.447 48.2721 209.963L55.8521 266.003C56.7721 272.811 59.7481 279.055 64.4401 284.043L118.68 342.271C120.484 344.207 123.032 345.331 125.676 345.359C128.4 345.391 130.892 344.315 132.736 342.419C136.348 338.699 136.404 332.823 132.864 329.035L108.372 302.831C104.276 298.443 104.408 291.703 108.676 287.487C112.944 283.267 119.888 283.267 124.16 287.487L169.8 332.635C179.936 342.663 185.752 356.591 185.752 370.839L185.464 471.611Z" fill="#2DC1BD"/>
<path d="M306.452 445.191H306.464C308.672 445.187 310.46 443.387 310.452 441.179L310.38 415.679C310.376 413.475 308.584 411.691 306.38 411.691C306.376 411.691 306.372 411.691 306.368 411.691C304.16 411.695 302.372 413.495 302.38 415.703L302.452 441.203C302.456 443.407 304.248 445.191 306.452 445.191Z" fill="#2DC1BD"/>
<path d="M476.22 197.195C472.172 192.899 466.692 190.531 460.788 190.531C450.224 190.531 441.192 198.427 439.78 208.891L432.2 264.931C431.508 270.075 429.256 274.791 425.684 278.591L371.44 336.815C371.008 337.279 370.488 337.355 370.216 337.355C369.96 337.395 369.42 337.295 368.976 336.839C368.344 336.187 368.332 335.159 368.952 334.495L393.444 308.295C400.524 300.723 400.292 289.087 392.924 281.799C385.556 274.511 373.56 274.507 366.192 281.799L320.552 326.947C308.904 338.467 302.224 354.467 302.224 370.867L302.332 397.707C302.34 399.911 304.132 401.691 306.332 401.691H306.348C308.556 401.683 310.344 399.883 310.332 397.675L310.224 370.847C310.224 356.587 316.04 342.659 326.176 332.631L371.816 287.483C376.084 283.259 383.028 283.259 387.3 287.483C391.568 291.703 391.7 298.443 387.6 302.827L363.104 329.031C359.568 332.819 359.624 338.699 363.236 342.415C365.076 344.315 367.708 345.363 370.296 345.355C372.94 345.327 375.488 344.199 377.292 342.267L431.52 284.051C436.228 279.047 439.204 272.799 440.124 265.999L447.704 209.959C448.584 203.443 454.208 198.527 460.784 198.527C464.46 198.527 467.872 200.003 470.392 202.679C472.912 205.355 474.18 208.851 473.988 212.251L462.812 299.111C461.62 308.375 457.96 317.159 452.224 324.511C436.364 344.847 404.892 384.739 387.544 406.707C382.892 412.595 380.28 419.971 380.192 427.475C380.036 440.507 379.992 455.751 379.98 471.591C379.98 474.311 377.768 476.523 375.052 476.523H315.444C312.732 476.523 310.524 474.319 310.516 471.607L310.48 458.675C310.476 456.471 308.684 454.687 306.48 454.687C306.476 454.687 306.472 454.687 306.468 454.687C304.26 454.691 302.472 456.491 302.48 458.699L302.516 471.631C302.536 478.739 308.336 484.523 315.444 484.523H375.048C382.172 484.523 387.972 478.723 387.976 471.599C387.988 455.791 388.032 440.579 388.188 427.571C388.26 421.739 390.204 416.239 393.82 411.663C411.176 389.687 442.66 349.779 458.532 329.427C465.148 320.943 469.372 310.811 470.748 300.127L481.948 212.995C482.304 207.107 480.268 201.491 476.22 197.195V197.195Z" fill="#2DC1BD"/>
</svg>
