<svg width="512" height="512" viewBox="0 0 512 512" fill="none" xmlns="http://www.w3.org/2000/svg">
<path d="M184 312V224C184 221.878 183.157 219.843 181.657 218.343C180.157 216.843 178.122 216 176 216H144C141.878 216 139.843 216.843 138.343 218.343C136.843 219.843 136 221.878 136 224V312H152V232H168V312H184Z" fill="#2DC1BD"/>
<path d="M312 344V232C312 229.878 311.157 227.843 309.657 226.343C308.157 224.843 306.122 224 304 224H272C269.878 224 267.843 224.843 266.343 226.343C264.843 227.843 264 229.878 264 232V344H280V240H296V344H312Z" fill="#2DC1BD"/>
<path d="M248 344V200C248 197.878 247.157 195.843 245.657 194.343C244.157 192.843 242.122 192 240 192H208C205.878 192 203.843 192.843 202.343 194.343C200.843 195.843 200 197.878 200 200V328H216V208H232V344H248Z" fill="#2DC1BD"/>
<path d="M376 280V200C376 197.878 375.157 195.843 373.657 194.343C372.157 192.843 370.122 192 368 192H336C333.878 192 331.843 192.843 330.343 194.343C328.843 195.843 328 197.878 328 200V288H344V208H360V280H376Z" fill="#2DC1BD"/>
<path d="M440 272V152C440 149.878 439.157 147.843 437.657 146.343C436.157 144.843 434.122 144 432 144H400C397.878 144 395.843 144.843 394.343 146.343C392.843 147.843 392 149.878 392 152V272H408V160H424V272H440Z" fill="#2DC1BD"/>
<path d="M138.343 197.657C139.843 199.157 141.878 200 144 200C146.122 200 148.157 199.157 149.657 197.657L215.694 131.619L282.053 205.352C282.78 206.159 283.663 206.81 284.649 207.265C285.636 207.719 286.704 207.969 287.79 207.997C287.86 207.999 287.929 208 288 208C290.122 208 292.157 207.157 293.657 205.657L400 99.314V120C400 122.122 400.843 124.157 402.343 125.657C403.843 127.157 405.878 128 408 128H440C442.121 128 444.156 127.157 445.657 125.657C447.157 124.157 448 122.122 448 120V24C448 21.8783 447.157 19.8435 445.657 18.3432C444.156 16.8429 442.121 16 440 16H344C341.878 16 339.843 16.8429 338.343 18.3432C336.843 19.8435 336 21.8783 336 24V56C336 58.1217 336.843 60.1565 338.343 61.6568C339.843 63.1571 341.878 64 344 64H364.686L288.305 140.381L221.946 66.6484C221.22 65.8412 220.336 65.1904 219.35 64.7356C218.364 64.2808 217.295 64.0315 216.21 64.0029C215.124 63.9744 214.044 64.1672 213.035 64.5695C212.027 64.9719 211.11 65.5754 210.343 66.3433L114.343 162.343C112.842 163.844 112 165.878 112 168C112 170.122 112.842 172.156 114.343 173.657L138.343 197.657ZM215.694 83.6191L282.053 157.352C282.78 158.159 283.663 158.81 284.649 159.264C285.636 159.719 286.704 159.969 287.79 159.997C288.875 160.026 289.955 159.833 290.964 159.43C291.973 159.028 292.889 158.425 293.657 157.657L389.657 61.6567C390.776 60.5378 391.537 59.1123 391.846 57.5605C392.154 56.0087 391.996 54.4003 391.39 52.9386C390.785 51.4768 389.76 50.2275 388.444 49.3484C387.129 48.4694 385.582 48.0001 384 48H352V32H432V112H416V80C416 78.4177 415.531 76.8709 414.651 75.5553C413.772 74.2397 412.523 73.2143 411.061 72.6088C409.599 72.0033 407.991 71.8449 406.439 72.1536C404.887 72.4624 403.461 73.2244 402.343 74.3433L288.305 188.381L221.946 114.648C221.22 113.841 220.336 113.19 219.35 112.735C218.364 112.281 217.295 112.031 216.21 112.003C216.139 112.001 216.07 112 216 112C213.878 112 211.843 112.843 210.342 114.343L144 180.686L131.313 168L215.694 83.6191Z" fill="#2DC1BD"/>
<path d="M88 488V472H112C114.122 472 116.157 471.157 117.657 469.656C119.157 468.156 120 466.121 120 464V443.04C158.2 478.105 208.467 497.061 260.308 495.952C312.149 494.844 361.56 473.756 398.226 437.09L485.657 349.661C490.944 344.375 494.114 337.339 494.572 329.877C495.03 322.415 492.743 315.044 488.142 309.152C483.541 303.26 476.944 299.254 469.594 297.889C462.245 296.523 454.649 297.893 448.24 301.74C445.508 297.513 441.795 294.011 437.415 291.531C433.036 289.051 428.122 287.668 423.092 287.501C418.063 287.333 413.067 288.385 408.533 290.568C403.998 292.75 400.059 295.998 397.053 300.034L393.661 304.584C391.927 303.254 390.07 302.091 388.115 301.113C383.977 299.044 379.463 297.832 374.844 297.551C370.226 297.27 365.598 297.925 361.239 299.478C356.88 301.03 352.88 303.448 349.479 306.585C346.078 309.722 343.346 313.514 341.447 317.734L321.28 362.549C317.056 360.863 312.549 359.998 308 360H211.313L197.657 346.343C187.636 336.349 174.612 329.919 160.585 328.038C146.558 326.157 132.3 328.929 120 335.929V328C120 325.878 119.157 323.843 117.657 322.343C116.157 320.842 114.122 320 112 320H88V312C88 309.878 87.1571 307.843 85.6568 306.343C84.1565 304.842 82.1217 304 80 304H16V320H72V480H16V496H80C82.1217 496 84.1565 495.157 85.6568 493.656C87.1571 492.156 88 490.121 88 488V488ZM429.867 305.65C432.601 307.292 434.745 309.756 435.995 312.69L372.52 376.166C364.023 384.674 354.431 392.013 343.997 397.987L409.881 309.596C412.124 306.569 415.415 304.488 419.111 303.758C422.807 303.028 426.642 303.703 429.867 305.65V305.65ZM356.037 324.299C357.051 322.046 358.51 320.021 360.326 318.345C362.143 316.67 364.279 315.379 366.607 314.55C368.934 313.721 371.406 313.371 373.872 313.521C376.338 313.671 378.749 314.318 380.959 315.423C382.069 315.981 383.12 316.649 384.095 317.418L339.062 377.835C337.803 375.685 336.324 373.67 334.651 371.823L356.037 324.299ZM186.343 357.656L202.343 373.656C203.843 375.157 205.878 376 208 376H308C313.304 376 318.391 378.107 322.142 381.857C325.893 385.608 328 390.695 328 396C328 401.304 325.893 406.391 322.142 410.142C318.391 413.892 313.304 416 308 416H208V432H308C312.95 432.001 317.847 430.979 322.383 428.997C326.92 427.015 330.997 424.117 334.359 420.483C352.874 412.868 369.692 401.65 383.834 387.48L453.656 317.657C456.4 314.914 460.121 313.373 464.001 313.373C467.881 313.373 471.602 314.914 474.345 317.658C477.089 320.401 478.63 324.122 478.63 328.002C478.63 331.882 477.088 335.603 474.345 338.347L386.911 425.776C352.191 460.495 305.1 480 255.999 480C206.898 479.999 159.808 460.494 125.088 425.774L120 420.686V355.479C129.276 347.368 141.286 343.082 153.601 343.486C165.916 343.89 177.618 348.955 186.343 357.656V357.656ZM104 336V456H88V336H104Z" fill="#2DC1BD"/>
</svg>
