<svg width="25" height="23" viewBox="0 0 25 23" fill="none" xmlns="http://www.w3.org/2000/svg">
<rect width="25" height="22" fill="#2DC1BD"/>
<path d="M17.678 15.492V18H7.627V16.005L12.757 11.16C13.3017 10.6407 13.669 10.1973 13.859 9.83C14.049 9.45 14.144 9.07633 14.144 8.709C14.144 8.177 13.9603 7.77167 13.593 7.493C13.2383 7.20167 12.7127 7.056 12.016 7.056C11.4333 7.056 10.9077 7.17 10.439 7.398C9.97033 7.61333 9.57767 7.94267 9.261 8.386L7.019 6.942C7.53833 6.16933 8.254 5.56767 9.166 5.137C10.078 4.69367 11.123 4.472 12.301 4.472C13.289 4.472 14.1503 4.63667 14.885 4.966C15.6323 5.28267 16.2087 5.73867 16.614 6.334C17.032 6.91667 17.241 7.607 17.241 8.405C17.241 9.127 17.089 9.80467 16.785 10.438C16.481 11.0713 15.892 11.7933 15.018 12.604L11.959 15.492H17.678Z" fill="#F0A955"/>
</svg>
