<svg width="25" height="23" viewBox="0 0 25 23" fill="none" xmlns="http://www.w3.org/2000/svg">
<rect width="25" height="22" fill="#2DC1BD"/>
<path d="M13.954 10.115C15.1193 10.305 16.0123 10.742 16.633 11.426C17.2537 12.0973 17.564 12.9333 17.564 13.934C17.564 14.7067 17.3613 15.4223 16.956 16.081C16.5507 16.727 15.93 17.2463 15.094 17.639C14.2707 18.0317 13.2573 18.228 12.054 18.228C11.1167 18.228 10.192 18.1077 9.28 17.867C8.38067 17.6137 7.61433 17.259 6.981 16.803L8.178 14.447C8.68467 14.827 9.26733 15.1247 9.926 15.34C10.5973 15.5427 11.2813 15.644 11.978 15.644C12.7507 15.644 13.3587 15.4983 13.802 15.207C14.2453 14.903 14.467 14.4787 14.467 13.934C14.467 12.8447 13.6373 12.3 11.978 12.3H10.572V10.267L13.308 7.17H7.646V4.7H16.956V6.695L13.954 10.115Z" fill="#F0A955"/>
</svg>
