<svg width="25" height="23" viewBox="0 0 25 23" fill="none" xmlns="http://www.w3.org/2000/svg">
<rect width="25" height="22" fill="#2DC1BD"/>
<path d="M14.144 9.659C14.9927 9.659 15.7653 9.83 16.462 10.172C17.1587 10.514 17.7097 11.0017 18.115 11.635C18.5203 12.2557 18.723 12.9777 18.723 13.801C18.723 14.6877 18.5013 15.4667 18.058 16.138C17.6147 16.8093 17.0067 17.3287 16.234 17.696C15.474 18.0507 14.6253 18.228 13.688 18.228C11.826 18.228 10.3693 17.658 9.318 16.518C8.26667 15.378 7.741 13.7503 7.741 11.635C7.741 10.1277 8.026 8.83567 8.596 7.759C9.166 6.68233 9.95767 5.86533 10.971 5.308C11.997 4.75067 13.1813 4.472 14.524 4.472C15.2333 4.472 15.911 4.55433 16.557 4.719C17.2157 4.871 17.773 5.09267 18.229 5.384L17.089 7.645C16.4303 7.20167 15.6007 6.98 14.6 6.98C13.4727 6.98 12.5797 7.30933 11.921 7.968C11.2623 8.62667 10.9077 9.583 10.857 10.837C11.6423 10.0517 12.738 9.659 14.144 9.659ZM13.517 15.929C14.1757 15.929 14.7077 15.7517 15.113 15.397C15.531 15.0423 15.74 14.561 15.74 13.953C15.74 13.345 15.531 12.8637 15.113 12.509C14.7077 12.1417 14.163 11.958 13.479 11.958C12.8077 11.958 12.2567 12.148 11.826 12.528C11.3953 12.8953 11.18 13.3703 11.18 13.953C11.18 14.5357 11.389 15.0107 11.807 15.378C12.225 15.7453 12.795 15.929 13.517 15.929Z" fill="#F0A955"/>
</svg>
