<svg width="25" height="23" viewBox="0 0 25 23" fill="none" xmlns="http://www.w3.org/2000/svg">
<rect width="25" height="22" fill="#2DC1BD"/>
<path d="M12.301 9.697C14.1757 9.697 15.5563 10.0707 16.443 10.818C17.3423 11.5653 17.792 12.566 17.792 13.82C17.792 14.6307 17.5893 15.3717 17.184 16.043C16.7787 16.7017 16.158 17.2337 15.322 17.639C14.4987 18.0317 13.479 18.228 12.263 18.228C11.3257 18.228 10.401 18.1077 9.489 17.867C8.58967 17.6137 7.82333 17.259 7.19 16.803L8.406 14.447C8.91267 14.827 9.49533 15.1247 10.154 15.34C10.8127 15.5427 11.4903 15.644 12.187 15.644C12.9597 15.644 13.5677 15.492 14.011 15.188C14.4543 14.884 14.676 14.4597 14.676 13.915C14.676 13.345 14.4417 12.9143 13.973 12.623C13.517 12.3317 12.719 12.186 11.579 12.186H8.178L8.862 4.7H16.975V7.17H11.427L11.218 9.697H12.301Z" fill="#F0A955"/>
</svg>
